<?xml version="1.0" encoding="UTF-8"?>
<svg version="1.1" xmlns="http://www.w3.org/2000/svg" width="512" height="512">
<path d="M0 0 C0.82877655 0.00182281 1.6575531 0.00364563 2.51144409 0.00552368 C15.64153442 0.05397187 28.41359648 0.67665947 41.3125 3.3125 C42.59833984 3.56990967 42.59833984 3.56990967 43.91015625 3.83251953 C78.69405455 10.99805381 111.84142937 25.61094654 139.3125 48.3125 C139.87388672 48.77237305 140.43527344 49.23224609 141.01367188 49.70605469 C153.6361259 60.09811968 165.39278763 71.27142839 175.3125 84.3125 C175.80218262 84.9528418 176.29186523 85.59318359 176.79638672 86.25292969 C185.02807489 97.090026 192.11049411 108.20270596 198.3125 120.3125 C198.69889648 121.0554834 199.08529297 121.7984668 199.48339844 122.56396484 C208.0986456 139.27812207 214.12165085 156.90107652 218.1875 175.25 C218.37860352 176.11141602 218.56970703 176.97283203 218.76660156 177.86035156 C221.79265831 192.50734495 222.69360331 207.08413589 222.625 222 C222.62226578 223.24316483 222.62226578 223.24316483 222.61947632 224.51144409 C222.57102813 237.64153442 221.94834053 250.41359648 219.3125 263.3125 C219.14089355 264.16972656 218.96928711 265.02695312 218.79248047 265.91015625 C211.62694619 300.69405455 197.01405346 333.84142937 174.3125 361.3125 C173.85262695 361.87388672 173.39275391 362.43527344 172.91894531 363.01367188 C162.52688032 375.6361259 151.35357161 387.39278763 138.3125 397.3125 C137.6721582 397.80218262 137.03181641 398.29186523 136.37207031 398.79638672 C125.534974 407.02807489 114.42229404 414.11049411 102.3125 420.3125 C101.5695166 420.69889648 100.8265332 421.08529297 100.06103516 421.48339844 C83.34687793 430.0986456 65.72392348 436.12165085 47.375 440.1875 C46.51358398 440.37860352 45.65216797 440.56970703 44.76464844 440.76660156 C30.11820224 443.79254527 15.54048387 444.69526124 0.625 444.625 C-0.2051059 444.62284485 -1.03521179 444.6206897 -1.89047241 444.61846924 C-15.02573704 444.5639471 -27.78755498 443.97378616 -40.6875 441.3125 C-42.15968994 441.01448486 -42.15968994 441.01448486 -43.66162109 440.71044922 C-94.82299952 430.06013888 -142.65423545 402.09014922 -174.6875 360.3125 C-175.10708984 359.77463867 -175.52667969 359.23677734 -175.95898438 358.68261719 C-206.2522466 319.69938996 -222.22645583 271.86146111 -222 222.625 C-221.99817719 221.79622345 -221.99635437 220.9674469 -221.99447632 220.11355591 C-221.94602813 206.98346558 -221.32334053 194.21140352 -218.6875 181.3125 C-218.51589355 180.45527344 -218.34428711 179.59804687 -218.16748047 178.71484375 C-207.60475742 127.43985574 -179.5277009 79.36388385 -137.6875 47.3125 C-137.13900391 46.88759277 -136.59050781 46.46268555 -136.02539062 46.02490234 C-96.87637413 15.83757803 -49.35940598 -0.2270213 0 0 Z M-58.6875 26.3125 C-55.52735287 29.60267107 -52.38535889 32.36253328 -48.625 34.9375 C-42.70929445 39.16981015 -37.40084463 43.89530631 -32.15625 48.91113281 C-30.75080711 50.25209727 -29.32887523 51.57571573 -27.90625 52.8984375 C1.12962179 80.68276309 17.87543414 120.61885472 20.06640625 160.4140625 C20.20377808 163.37772464 20.20377808 163.37772464 21.3125 166.3125 C23.86201047 167.78090117 23.86201047 167.78090117 26.875 169 C27.88691406 169.43699219 28.89882813 169.87398437 29.94140625 170.32421875 C30.72386719 170.65035156 31.50632812 170.97648438 32.3125 171.3125 C51.13941228 137.66914197 52.30737031 98.06475256 42.49462891 61.39428711 C39.90551159 52.36612315 36.28623407 43.80876559 32.3125 35.3125 C31.79502197 34.19560791 31.79502197 34.19560791 31.26708984 33.05615234 C30.2694997 30.93832909 29.23828276 28.84186677 28.1875 26.75 C27.88739014 26.12448242 27.58728027 25.49896484 27.27807617 24.85449219 C25.74498172 21.93705165 24.71148319 20.48588646 21.65576172 19.15795898 C17.919664 18.21315787 14.61925705 18.0206013 10.765625 17.9765625 C10.04519516 17.96827423 9.32476532 17.95998596 8.58250427 17.95144653 C6.24229485 17.93211179 3.90277707 17.93213478 1.5625 17.9375 C0.76204254 17.93737915 -0.03841492 17.9372583 -0.86312866 17.93713379 C-20.60275832 17.97949087 -39.78192653 20.4474046 -58.6875 26.3125 Z M46.3125 23.3125 C46.58400879 23.92432129 46.85551758 24.53614258 47.13525391 25.16650391 C66.31734365 68.76659025 72.52640664 115.56581005 56.3125 161.3125 C54.39672751 166.16359771 52.26951441 170.90776432 50.046875 175.625 C49.74894043 176.26735596 49.45100586 176.90971191 49.14404297 177.5715332 C48.43115908 179.06406843 47.65504985 180.52611744 46.8671875 181.98046875 C46.01869706 184.43998649 46.01869706 184.43998649 47.6484375 186.98828125 C48.32132812 187.85839844 48.99421875 188.72851562 49.6875 189.625 C50.35523438 190.50800781 51.02296875 191.39101562 51.7109375 192.30078125 C52.23945313 192.96464844 52.76796875 193.62851563 53.3125 194.3125 C61.90953787 189.41959669 68.81943187 183.54517814 75.88330078 176.69042969 C77.07949168 175.53714963 78.3006013 174.40979017 79.52734375 173.2890625 C103.97859181 150.38789356 117.89225533 114.01383936 121.3125 81.3125 C121.43044922 80.33748535 121.54839844 79.3624707 121.66992188 78.35791016 C123.26590276 66.59412989 123.26590276 66.59412989 120.22998047 55.48291016 C117.04296251 52.12797766 113.04160232 50.32986149 108.85888672 48.48339844 C106.02542421 47.18049468 103.34467412 45.69687184 100.62890625 44.1640625 C83.66263214 34.71297776 65.56684563 26.59326102 46.3125 23.3125 Z M-144.6875 78.3125 C-146.05076733 79.95477213 -147.39517362 81.61383932 -148.6875 83.3125 C-148.03491211 83.37719482 -147.38232422 83.44188965 -146.70996094 83.50854492 C-104.16295834 87.84893529 -65.71655555 102.02113373 -34.6875 132.3125 C-33.52541016 133.38177734 -33.52541016 133.38177734 -32.33984375 134.47265625 C-26.51374398 139.96994615 -21.8992983 146.16676247 -17.265625 152.6640625 C-16.83531982 153.26114014 -16.40501465 153.85821777 -15.96166992 154.47338867 C-15.08953833 155.73220593 -14.26030008 157.02153023 -13.4699707 158.33325195 C-12.14936238 160.54713716 -12.14936238 160.54713716 -9.6875 163.3125 C-6.55739211 163.94247235 -6.55739211 163.94247235 -3.375 163.25 C-2.30636719 163.09402344 -1.23773438 162.93804687 -0.13671875 162.77734375 C0.67152344 162.62394531 1.47976563 162.47054687 2.3125 162.3125 C4.81950342 131.94990306 -12.21117992 99.19070198 -30.6875 76.3125 C-34.22578442 72.19089754 -37.94416211 68.24722659 -41.6875 64.3125 C-42.30753906 63.62800781 -42.92757812 62.94351563 -43.56640625 62.23828125 C-53.85815791 51.255808 -67.17033728 41.88251595 -80.6875 35.3125 C-101.272899 35.3125 -130.87209983 64.76396491 -144.6875 78.3125 Z M139.3125 73.3125 C139.24780518 73.96508789 139.18311035 74.61767578 139.11645508 75.29003906 C134.77749191 117.82305145 120.61404941 156.30297046 90.3125 187.3125 C89.64992188 188.02535156 88.98734375 188.73820312 88.3046875 189.47265625 C84.47936385 193.49804913 80.32889541 196.98510643 75.9375 200.375 C75.38449219 200.80458008 74.83148438 201.23416016 74.26171875 201.67675781 C71.64051595 203.67642248 69.08906106 205.4403003 66.21875 207.08203125 C63.4765081 208.66498268 61.36567858 209.89671878 59.3125 212.3125 C58.78190365 216.52012907 59.32854075 220.20817683 60.3125 224.3125 C90.67509694 226.81950342 123.43429802 209.78882008 146.3125 191.3125 C150.43410246 187.77421558 154.37777341 184.05583789 158.3125 180.3125 C158.99699219 179.69246094 159.68148437 179.07242188 160.38671875 178.43359375 C170.64942721 168.81633865 182.50195623 154.68273019 187.3125 141.3125 C182.89479368 117.69726105 157.88796154 87.44455078 139.3125 73.3125 Z M-170.9375 108.375 C-172.20550797 110.7675113 -173.35779084 113.17866015 -174.46142578 115.65136719 C-175.75130146 118.45097787 -177.199658 121.10518147 -178.71484375 123.7890625 C-187.9433266 140.30686421 -195.12329506 157.67974756 -198.6875 176.3125 C-198.07567871 176.04099121 -197.46385742 175.76948242 -196.83349609 175.48974609 C-153.32053542 156.34598775 -106.35655964 150.02395607 -60.6875 166.3125 C-55.83761515 168.23104528 -51.09209357 170.35529209 -46.375 172.578125 C-45.73264404 172.87605957 -45.09028809 173.17399414 -44.4284668 173.48095703 C-42.93593157 174.19384092 -41.47388256 174.96995015 -40.01953125 175.7578125 C-37.56001351 176.60630294 -37.56001351 176.60630294 -35.01171875 174.9765625 C-34.14160156 174.30367188 -33.27148438 173.63078125 -32.375 172.9375 C-31.49199219 172.26976562 -30.60898438 171.60203125 -29.69921875 170.9140625 C-29.03535156 170.38554687 -28.37148437 169.85703125 -27.6875 169.3125 C-32.58040331 160.71546213 -38.45482186 153.80556813 -45.30957031 146.74169922 C-46.46285037 145.54550832 -47.59020983 144.3243987 -48.7109375 143.09765625 C-70.73862494 119.5790118 -106.43888637 104.82748402 -138.05664062 101.58496094 C-139.93325522 101.39061221 -141.80689936 101.16663444 -143.67773438 100.92285156 C-159.60413944 98.79780695 -159.60413944 98.79780695 -170.9375 108.375 Z M195.3125 163.3125 C193.94716951 165.05878208 192.62168276 166.83623814 191.3125 168.625 C163.14036444 206.51532221 124.79859642 233.52576299 77.421875 240.98828125 C74.85104721 241.25634495 72.34570164 241.393304 69.765625 241.48046875 C62.91599093 241.69397469 62.91599093 241.69397469 56.3125 243.3125 C53.34765277 246.68699797 52.17550472 249.93896763 51.3125 254.3125 C83.51978226 272.33578047 121.50405327 274.32965774 156.875 265.5625 C173.19549756 260.87676668 189.11651166 254.77649222 203.3125 245.3125 C205.12170015 238.13874231 204.60139923 230.42710202 204.625 223.0625 C204.62761841 222.28571899 204.63023682 221.50893799 204.63293457 220.70861816 C204.63997877 201.12473246 202.12734271 182.05608874 196.3125 163.3125 C195.9825 163.3125 195.6525 163.3125 195.3125 163.3125 Z M-186.6875 190.3125 C-187.80656738 190.82200195 -187.80656738 190.82200195 -188.94824219 191.34179688 C-191.06596593 192.32123236 -193.15984583 193.33822021 -195.25 194.375 C-195.87543701 194.66673096 -196.50087402 194.95846191 -197.14526367 195.2590332 C-200.40240165 196.95204775 -201.57311254 197.99838802 -202.84204102 201.48291016 C-203.69518442 205.34730735 -203.97657896 208.78528475 -204.0234375 212.73828125 C-204.03172577 213.43505478 -204.04001404 214.13182831 -204.04855347 214.84971619 C-204.0678497 217.10836048 -204.06786965 219.36628604 -204.0625 221.625 C-204.06262085 222.39928345 -204.0627417 223.17356689 -204.06286621 223.97131348 C-204.01955176 243.52426075 -201.49278422 262.59972214 -195.6875 281.3125 C-192.39732893 278.15235287 -189.63746672 275.01035889 -187.0625 271.25 C-182.83018985 265.33429445 -178.10469369 260.02584463 -173.08886719 254.78125 C-171.74790273 253.37580711 -170.42428427 251.95387523 -169.1015625 250.53125 C-141.05988196 221.2264307 -100.85245956 204.58447015 -60.70703125 202.55859375 C-57.76767122 202.50803569 -57.76767122 202.50803569 -55.6875 201.3125 C-54.74904746 199.48962703 -53.88314908 197.62885447 -53.0625 195.75 C-52.39347656 194.23212891 -52.39347656 194.23212891 -51.7109375 192.68359375 C-51.37320313 191.90113281 -51.03546875 191.11867187 -50.6875 190.3125 C-93.00459894 166.63173933 -143.79677721 170.47715072 -186.6875 190.3125 Z M-32 194.625 C-40.16298658 204.9154505 -42.78668943 216.38658886 -41.6875 229.3125 C-39.41512678 240.53829584 -33.29495942 250.86260239 -23.6875 257.3125 C-12.75685322 263.65192196 -2.06602254 266.21094032 10.53515625 263.66015625 C21.53906463 260.35188444 30.90917557 253.90486161 36.71484375 243.89453125 C42.56142576 232.69281905 44.45678708 221.39194201 40.75 209.0625 C36.16134944 196.94458478 28.32508283 188.75847794 16.703125 183.34765625 C-0.52217427 175.88898908 -19.43563626 181.06955413 -32 194.625 Z M-157.6875 264.3125 C-158.37199219 264.93253906 -159.05648437 265.55257812 -159.76171875 266.19140625 C-170.02442721 275.80866135 -181.87695623 289.94226981 -186.6875 303.3125 C-182.26979368 326.92773895 -157.26296154 357.18044922 -138.6875 371.3125 C-138.62280518 370.65991211 -138.55811035 370.00732422 -138.49145508 369.33496094 C-134.15249191 326.80194855 -119.98904941 288.32202954 -89.6875 257.3125 C-89.02492188 256.59964844 -88.36234375 255.88679688 -87.6796875 255.15234375 C-83.85436385 251.12695087 -79.70389541 247.63989357 -75.3125 244.25 C-74.75949219 243.82041992 -74.20648438 243.39083984 -73.63671875 242.94824219 C-71.01551595 240.94857752 -68.46406106 239.1846997 -65.59375 237.54296875 C-62.8515081 235.96001732 -60.74067858 234.72828122 -58.6875 232.3125 C-58.15690365 228.10487093 -58.70354075 224.41682317 -59.6875 220.3125 C-95.9784432 217.3160001 -132.66725709 240.50926461 -157.6875 264.3125 Z M-75.6875 268.3125 C-76.42484375 268.98539062 -77.1621875 269.65828125 -77.921875 270.3515625 C-102.77382846 293.88160354 -117.17665184 329.74489064 -120.6875 363.3125 C-120.80544922 364.28751465 -120.92339844 365.2625293 -121.04492188 366.26708984 C-122.64090276 378.03087011 -122.64090276 378.03087011 -119.60498047 389.14208984 C-116.42140245 392.49340117 -112.42529395 394.29244591 -108.24707031 396.13720703 C-105.37680306 397.45516454 -102.65403695 398.95301225 -99.8984375 400.49609375 C-82.76271867 409.98437756 -64.99094335 417.62124594 -45.6875 421.3125 C-45.95900879 420.70067871 -46.23051758 420.08885742 -46.51025391 419.45849609 C-65.69234365 375.85840975 -71.90140664 329.05918995 -55.6875 283.3125 C-53.77172751 278.46140229 -51.64451441 273.71723568 -49.421875 269 C-49.12385986 268.35764404 -48.82584473 267.71528809 -48.51879883 267.0534668 C-47.80635871 265.56142261 -47.03200683 264.09921589 -46.24609375 262.64453125 C-45.39725471 260.18971793 -45.39725471 260.18971793 -46.98828125 257.63671875 C-47.65214844 256.76660156 -48.31601563 255.89648438 -49 255 C-49.65613281 254.11699219 -50.31226563 253.23398437 -50.98828125 252.32421875 C-51.82939453 251.32841797 -51.82939453 251.32841797 -52.6875 250.3125 C-59.11144074 250.3125 -71.37689829 264.24454806 -75.6875 268.3125 Z M35.63671875 269.6484375 C34.76660156 270.32132812 33.89648438 270.99421875 33 271.6875 C32.11699219 272.35523438 31.23398437 273.02296875 30.32421875 273.7109375 C29.32841797 274.50371094 29.32841797 274.50371094 28.3125 275.3125 C33.20540331 283.90953787 39.07982186 290.81943187 45.93457031 297.88330078 C47.08785037 299.07949168 48.21520983 300.3006013 49.3359375 301.52734375 C72.23710644 325.97859181 108.61116064 339.89225533 141.3125 343.3125 C142.28751465 343.43044922 143.2625293 343.54839844 144.26708984 343.66992188 C156.03087011 345.26590276 156.03087011 345.26590276 167.14208984 342.22998047 C170.49340117 339.04640245 172.29244591 335.05029395 174.13720703 330.87207031 C175.45516454 328.00180306 176.95301225 325.27903695 178.49609375 322.5234375 C187.98437756 305.38771867 195.62124594 287.61594335 199.3125 268.3125 C198.39476807 268.71976318 198.39476807 268.71976318 197.45849609 269.13525391 C153.94553542 288.27901225 106.98155964 294.60104393 61.3125 278.3125 C56.46261515 276.39395472 51.71709357 274.26970791 47 272.046875 C46.03646606 271.59997314 46.03646606 271.59997314 45.0534668 271.14404297 C43.56093157 270.43115908 42.09888256 269.65504985 40.64453125 268.8671875 C38.18501351 268.01869706 38.18501351 268.01869706 35.63671875 269.6484375 Z M-31.6875 273.3125 C-50.51441228 306.95585803 -51.68237031 346.56024744 -41.86962891 383.23071289 C-39.28051159 392.25887685 -35.66123407 400.81623441 -31.6875 409.3125 C-31.34251465 410.05709473 -30.9975293 410.80168945 -30.64208984 411.56884766 C-29.6444997 413.68667091 -28.61328276 415.78313323 -27.5625 417.875 C-27.26239014 418.50051758 -26.96228027 419.12603516 -26.65307617 419.77050781 C-25.11998172 422.68794835 -24.08648319 424.13911354 -21.03076172 425.46704102 C-17.294664 426.41184213 -13.99425705 426.6043987 -10.140625 426.6484375 C-9.42019516 426.65672577 -8.69976532 426.66501404 -7.95750427 426.67355347 C-5.61729485 426.69288821 -3.27777707 426.69286522 -0.9375 426.6875 C-0.13704254 426.68762085 0.66341492 426.6877417 1.48812866 426.68786621 C21.22775832 426.64550913 40.40692653 424.1775954 59.3125 418.3125 C56.15235287 415.02232893 53.01035889 412.26246672 49.25 409.6875 C43.33429445 405.45518985 38.02584463 400.72969369 32.78125 395.71386719 C31.37580711 394.37290273 29.95387523 393.04928427 28.53125 391.7265625 C-0.7735693 363.68488196 -17.41552985 323.47745956 -19.44140625 283.33203125 C-19.49196431 280.39267122 -19.49196431 280.39267122 -20.6875 278.3125 C-22.51037297 277.37404746 -24.37114553 276.50814908 -26.25 275.6875 C-27.26191406 275.24148438 -28.27382812 274.79546875 -29.31640625 274.3359375 C-30.09886719 273.99820312 -30.88132813 273.66046875 -31.6875 273.3125 Z M3.75 281.8125 C2.73808594 281.9053125 1.72617187 281.998125 0.68359375 282.09375 C-0.09886719 282.1659375 -0.88132813 282.238125 -1.6875 282.3125 C-4.19450342 312.67509694 12.83617992 345.43429802 31.3125 368.3125 C34.85078442 372.43410246 38.56916211 376.37777341 42.3125 380.3125 C43.24255859 381.33923828 43.24255859 381.33923828 44.19140625 382.38671875 C53.80866135 392.64942721 67.94226981 404.50195623 81.3125 409.3125 C104.92773895 404.89479368 135.18044922 379.88796154 149.3125 361.3125 C148.65991211 361.24780518 148.00732422 361.18311035 147.33496094 361.11645508 C104.78795834 356.77606471 66.34155555 342.60386627 35.3125 312.3125 C34.53777344 311.59964844 33.76304687 310.88679688 32.96484375 310.15234375 C25.48772504 303.0972141 19.75482904 294.69796185 13.90820312 286.29394531 C12.73286603 284.61693995 11.52555661 282.96242664 10.3125 281.3125 C8.12375763 281.3125 5.92685695 281.61232925 3.75 281.8125 Z " fill="#000000" transform="translate(255.6875,33.6875)"/>
<path d="M0 0 C1.01790619 0.00215515 2.03581238 0.0043103 3.08456421 0.00653076 C17.69363523 0.05620146 32.02575853 0.30709809 46.375 3.3125 C47.34985352 3.51117676 48.32470703 3.70985352 49.32910156 3.91455078 C88.38660539 12.08468046 124.82400319 27.71035417 156.375 52.3125 C157.25929688 52.98539063 158.14359375 53.65828125 159.0546875 54.3515625 C174.64162389 66.45260257 189.26666068 80.75087979 201.375 96.3125 C202.15101563 97.2715625 202.92703125 98.230625 203.7265625 99.21875 C238.25804162 142.62975232 256.81395322 197.76040062 256.69067383 253.03979492 C256.6875221 255.97938487 256.71104926 258.9179558 256.73632812 261.85742188 C256.78098737 275.23056192 255.57551542 288.12666711 253.375 301.3125 C253.09281616 303.01805054 253.09281616 303.01805054 252.80493164 304.75805664 C245.77946967 343.86954746 228.79665906 381.05202178 204.375 412.3125 C203.61574219 413.28445313 202.85648437 414.25640625 202.07421875 415.2578125 C189.73986402 430.63741644 175.93895499 445.19015196 160.375 457.3125 C159.43914062 458.07691406 158.50328125 458.84132813 157.5390625 459.62890625 C125.58628299 485.2157721 86.41988322 501.72551276 46.375 509.3125 C45.56562988 509.47621094 44.75625977 509.63992188 43.92236328 509.80859375 C13.88110013 515.67977137 -20.7615176 514.58512909 -50.625 508.3125 C-52.14794678 507.99901611 -52.14794678 507.99901611 -53.70166016 507.67919922 C-90.84546555 499.78695344 -125.70945445 483.68345578 -155.625 460.3125 C-156.59695312 459.55324219 -157.56890625 458.79398437 -158.5703125 458.01171875 C-173.94991644 445.67736402 -188.50265196 431.87645499 -200.625 416.3125 C-201.77162109 414.90871094 -201.77162109 414.90871094 -202.94140625 413.4765625 C-228.5282721 381.52378299 -245.03801276 342.35738322 -252.625 302.3125 C-252.78871094 301.50312988 -252.95242187 300.69375977 -253.12109375 299.85986328 C-258.59069558 271.87335724 -258.46977511 238.21828161 -252.625 210.3125 C-252.42632324 209.33764648 -252.22764648 208.36279297 -252.02294922 207.35839844 C-241.93598313 159.13741149 -219.89911449 114.53770064 -185.40722656 79.14160156 C-183.63301167 77.32072238 -181.87518486 75.48496071 -180.1171875 73.6484375 C-173.01562574 66.30860161 -165.60158994 59.73928631 -157.40917969 53.64355469 C-155.59628085 52.2910746 -153.80174757 50.91656557 -152.0078125 49.5390625 C-143.60124472 43.15234877 -134.85975388 37.61076633 -125.65234375 32.45166016 C-123.78933792 31.40484113 -121.94116361 30.33571119 -120.09375 29.26171875 C-83.4933446 8.69459905 -41.63834482 -0.15855121 0 0 Z M-147.625 69.3125 C-148.50115967 70.01511963 -148.50115967 70.01511963 -149.39501953 70.73193359 C-163.39405396 82.07387166 -176.80073284 94.88649606 -187.625 109.3125 C-188.09292969 109.9204541 -188.56085938 110.5284082 -189.04296875 111.15478516 C-213.2102354 142.64984708 -229.65112791 179.98391539 -235.625 219.3125 C-235.80015137 220.44421631 -235.97530273 221.57593262 -236.15576172 222.74194336 C-237.70083885 233.71392062 -238.02479127 244.55394652 -238 255.625 C-237.99945618 256.54358795 -237.99891235 257.4621759 -237.99835205 258.40859985 C-237.86078677 309.17073941 -221.56220711 360.42112056 -189.625 400.3125 C-188.98304688 401.14523437 -188.34109375 401.97796875 -187.6796875 402.8359375 C-182.35877658 409.66479889 -176.58280363 416.04153473 -170.625 422.3125 C-170.11807617 422.84810547 -169.61115234 423.38371094 -169.08886719 423.93554688 C-161.18334564 432.23067304 -152.83034141 439.49779188 -143.625 446.3125 C-143.05136719 446.74159668 -142.47773438 447.17069336 -141.88671875 447.61279297 C-111.02721912 470.60938962 -74.71902833 486.40445328 -36.625 492.3125 C-35.48893311 492.48910156 -34.35286621 492.66570312 -33.18237305 492.84765625 C-22.21551746 494.39121619 -11.37820725 494.71227929 -0.3125 494.6875 C0.60608795 494.68695618 1.5246759 494.68641235 2.47109985 494.68585205 C53.23323941 494.54828677 104.48362056 478.24970711 144.375 446.3125 C145.20773437 445.67054688 146.04046875 445.02859375 146.8984375 444.3671875 C153.72729889 439.04627658 160.10403473 433.27030363 166.375 427.3125 C166.91060547 426.80557617 167.44621094 426.29865234 167.99804688 425.77636719 C175.74463187 418.39362299 182.64090542 410.66117197 189.04101562 402.08642578 C190.35426081 400.34007887 191.69688617 398.62037698 193.046875 396.90234375 C215.98698269 367.26600241 230.76244869 330.26235357 236.375 293.3125 C236.55015137 292.18078369 236.72530273 291.04906738 236.90576172 289.88305664 C238.45083885 278.91107938 238.77479127 268.07105348 238.75 257 C238.74945618 256.08141205 238.74891235 255.1628241 238.74835205 254.21640015 C238.61078677 203.45426059 222.31220711 152.20387944 190.375 112.3125 C189.41207031 111.06339844 189.41207031 111.06339844 188.4296875 109.7890625 C176.56983989 94.56812448 162.74008305 80.00542483 147.375 68.3125 C146.75061035 67.83345215 146.1262207 67.3544043 145.48291016 66.86083984 C103.78155707 35.0775394 53.49417854 17.82009042 1.0625 17.9375 C0.14391205 17.93804382 -0.7746759 17.93858765 -1.72109985 17.93914795 C-54.75630695 18.08287324 -106.23699309 36.00181217 -147.625 69.3125 Z " fill="#000000" transform="translate(255.625,-0.3125)"/>
</svg>
