<?xml version="1.0" encoding="UTF-8"?>
<svg version="1.1" xmlns="http://www.w3.org/2000/svg" width="512" height="512">
<path d="M0 0 C1.03184274 -0.00322445 2.06368548 -0.00644889 3.12679619 -0.00977105 C4.2742398 -0.00822245 5.42168342 -0.00667385 6.60389805 -0.00507832 C7.81207284 -0.00734387 9.02024763 -0.00960943 10.26503378 -0.01194364 C13.63379663 -0.01720213 17.00250636 -0.01792458 20.37126958 -0.01674926 C23.99845827 -0.016546 27.62563887 -0.02205683 31.25282383 -0.02680683 C38.36478239 -0.03513018 45.47673267 -0.03786243 52.5886957 -0.03841921 C58.36668878 -0.03889357 64.14467911 -0.04094429 69.92267132 -0.04411983 C86.28654164 -0.05293095 102.65040539 -0.05753849 119.01427811 -0.05678936 C119.89733795 -0.0567494 120.78039779 -0.05670945 121.69021702 -0.05666828 C122.57434887 -0.0566274 123.45848072 -0.05658652 124.36940444 -0.0565444 C138.70429017 -0.05613778 153.03914965 -0.06571006 167.37402778 -0.07980665 C182.0755323 -0.09415026 196.77702401 -0.10107795 211.47853571 -0.10021287 C219.7393381 -0.09988021 228.00011297 -0.10265759 236.26090908 -0.11339092 C243.29347353 -0.12246948 250.32599799 -0.12469307 257.35856574 -0.1178815 C260.94964598 -0.11460285 264.54064939 -0.11460765 268.13172245 -0.12323475 C272.01742197 -0.132474 275.90300762 -0.12635888 279.7887125 -0.11860371 C281.50653184 -0.12631905 281.50653184 -0.12631905 283.2590546 -0.13419026 C284.81073033 -0.12729207 284.81073033 -0.12729207 286.39375305 -0.12025452 C287.29162928 -0.12047188 288.18950551 -0.12068925 289.11459011 -0.12091321 C291.2597971 0.12863445 291.2597971 0.12863445 293.2597971 2.12863445 C293.45876817 5.19157437 293.53242029 8.16413898 293.51858616 11.22824383 C293.52384312 12.64300755 293.52384312 12.64300755 293.52920628 14.08635235 C293.53803438 17.21510381 293.53217061 20.34363055 293.5254221 23.47238445 C293.52676844 25.63949915 293.5287087 27.80661356 293.53122044 29.97372723 C293.53417316 34.52002107 293.52986926 39.06623643 293.52053928 43.61252117 C293.5091447 49.45051349 293.51570338 55.28832193 293.52768421 61.12630749 C293.53489879 65.60258663 293.53261673 70.07882191 293.52742863 74.55510235 C293.52609102 76.70816857 293.52774372 78.86123872 293.53238773 81.01430035 C293.53744634 84.01931644 293.52975207 87.0240315 293.51858616 90.02902508 C293.52263462 90.92571407 293.52668308 91.82240307 293.53085423 92.74626446 C293.48832463 98.90010692 293.48832463 98.90010692 291.2597971 101.12863445 C288.7597971 101.37863445 288.7597971 101.37863445 286.2597971 101.12863445 C285.5997971 100.46863445 284.9397971 99.80863445 284.2597971 99.12863445 C284.2597971 69.09863445 284.2597971 39.06863445 284.2597971 8.12863445 C191.1997971 8.12863445 98.1397971 8.12863445 2.2597971 8.12863445 C2.2597971 112.07863445 2.2597971 216.02863445 2.2597971 323.12863445 C16.1197971 323.12863445 29.9797971 323.12863445 44.2597971 323.12863445 C44.2597971 315.53863445 44.2597971 307.94863445 44.2597971 300.12863445 C42.2797971 299.46863445 40.2997971 298.80863445 38.2597971 298.12863445 C33.15981638 293.80236876 30.5357473 288.93412818 29.8847971 282.31613445 C30.04703131 276.94212606 32.05986743 272.44918689 35.75589085 268.55050945 C38.1717748 266.45393186 40.21512643 265.14352468 43.2597971 264.12863445 C43.34616428 263.1850407 43.43253147 262.24144695 43.52151585 261.26925945 C44.96792737 248.05250829 48.88241903 237.63753475 57.2597971 227.12863445 C57.94428928 226.2675407 58.62878147 225.40644695 59.33401585 224.51925945 C67.48144417 214.94706862 78.12594017 206.0557154 89.2597971 200.12863445 C89.9197971 200.12863445 90.5797971 200.12863445 91.2597971 200.12863445 C91.152199 190.43613235 91.03954606 180.74370598 90.92045784 171.0513382 C90.8653176 166.55067946 90.81191198 162.05001412 90.76248264 157.54928875 C90.71470764 153.20502657 90.66236039 148.86084125 90.60685635 144.51667118 C90.58649222 142.8601266 90.56776951 141.20356099 90.55072308 139.54697895 C90.5265471 137.22491781 90.49651119 134.90300029 90.46511936 132.58102703 C90.4593639 131.89769802 90.45360844 131.21436901 90.44767857 130.51033306 C90.39266997 126.9254366 90.04362781 123.62347568 89.2597971 120.12863445 C89.17027768 118.20312248 89.12918218 116.27497498 89.1269846 114.34738445 C89.12569553 113.25812664 89.12440647 112.16886883 89.12307835 111.0466032 C89.12694553 109.91867352 89.13081272 108.79074383 89.1347971 107.62863445 C89.13092991 106.50070477 89.12706272 105.37277508 89.12307835 104.2106657 C89.12436741 103.12140789 89.12565647 102.03215008 89.1269846 100.90988445 C89.12811253 99.92052898 89.12924046 98.93117352 89.13040257 97.91183758 C89.25588965 95.21268134 89.70218944 92.76657942 90.2597971 90.12863445 C90.27891396 87.94111878 90.25451845 85.75298516 90.1972971 83.56613445 C90.18062672 67.51255996 94.3726046 53.74506918 105.6347971 42.00363445 C119.62651138 29.13125731 135.87753 24.41220869 154.5254221 24.8200407 C168.56671991 25.49521085 180.48634469 32.34728494 190.0097971 42.44894695 C224.11767012 83.07047628 221.17031832 142.2297314 223.2597971 192.12863445 C224.03234837 192.42503826 224.80489964 192.72144207 225.60086155 193.02682781 C241.46144869 199.59911959 254.81530926 215.69128429 263.2597971 230.12863445 C264.29620335 229.56273602 265.3326096 228.99683758 266.4004221 228.4137907 C267.77008687 227.67267072 269.13988559 226.93179825 270.5097971 226.19113445 C271.19171116 225.81795086 271.87362522 225.44476727 272.57620335 225.06027508 C273.24007053 224.70256023 273.90393772 224.34484539 274.5879221 223.9762907 C275.1953928 223.64637127 275.8028635 223.31645184 276.42874241 222.97653484 C278.35044692 222.08665754 280.19431288 221.57721935 282.2597971 221.12863445 C281.65651585 220.13605633 281.0532346 219.1434782 280.4316721 218.12082195 C269.39804214 199.53035278 265.08118227 179.76955147 270.28714085 158.4372282 C275.42320976 140.96634319 284.90108045 126.55688392 301.04861546 117.74313641 C313.77273081 111.11460956 328.97602704 109.44768103 342.8847971 113.75363445 C359.67450661 120.52139658 371.43436116 132.32688377 378.8613596 148.6481657 C385.73327314 166.55130888 386.25683822 186.17789204 379.2597971 204.12863445 C377.1736714 208.59925033 374.72817293 212.86065457 372.2597971 217.12863445 C371.58089459 218.45577936 370.90842147 219.78643154 370.2597971 221.12863445 C371.34776585 221.67390789 372.4357346 222.21918133 373.5566721 222.7809782 C387.01569485 229.64033173 398.23002866 237.73555893 409.2597971 248.12863445 C409.94686741 248.75125164 410.63393772 249.37386883 411.34182835 250.0153532 C424.48310001 262.37903483 434.75276908 280.0508043 435.6347971 298.31613445 C434.77588635 307.0483937 432.18710704 313.63619296 426.2597971 320.12863445 C425.66811741 320.78605633 425.07643772 321.4434782 424.46682835 322.12082195 C410.86996191 335.63878975 388.67749537 341.08222353 370.2597971 343.12863445 C370.2597971 353.35863445 370.2597971 363.58863445 370.2597971 374.12863445 C379.38467145 374.04950705 379.38467145 374.04950705 388.50930882 373.94845867 C390.20724583 373.940966 390.20724583 373.940966 391.9394846 373.93332195 C393.10205784 373.92284832 394.26463108 373.91237469 395.46243382 373.90158367 C398.2597971 374.12863445 398.2597971 374.12863445 400.2597971 376.12863445 C400.44828181 379.23280863 400.51140163 382.24717346 400.48684788 385.35177898 C400.48713993 386.30792095 400.48743198 387.26406292 400.48773289 388.24917889 C400.48633586 391.42002617 400.47075708 394.59064055 400.4551096 397.76144695 C400.45138079 399.95577141 400.4485332 402.15009753 400.44653416 404.34442425 C400.43888725 410.12800959 400.41922968 415.91149495 400.3971262 421.6950407 C400.37669052 427.59346444 400.36753732 433.49190429 400.35745335 439.3903532 C400.33598479 450.96982429 400.30183611 462.54922107 400.2597971 474.12863445 C400.94606174 474.11816082 401.63232639 474.10768719 402.33938694 474.09689617 C405.43781998 474.05541571 408.5361947 474.02933376 411.6347971 474.00363445 C412.71503147 473.98687664 413.79526585 473.97011883 414.9082346 473.9528532 C415.9394846 473.94640789 416.9707346 473.93996258 418.0332346 473.93332195 C418.98633518 473.92284832 419.93943577 473.91237469 420.92141819 473.90158367 C423.2597971 474.12863445 423.2597971 474.12863445 425.2597971 476.12863445 C425.50271702 479.18551922 425.50271702 479.18551922 425.49026585 483.0700407 C425.48980762 483.75291653 425.4893494 484.43579235 425.4888773 485.13936138 C425.48585601 486.58266214 425.47797332 488.02595967 425.46560764 489.46921062 C425.4473404 491.68587999 425.44509802 493.90213203 425.44534397 496.11886883 C425.40722178 506.98120977 425.40722178 506.98120977 424.2597971 508.12863445 C422.5895504 508.22477578 420.91521433 508.25051168 419.24220371 508.24888897 C418.15540318 508.25026363 417.06860264 508.2516383 415.94886875 508.25305462 C414.74621876 508.24945934 413.54356876 508.24586407 412.30447483 508.24215984 C411.0461182 508.24230587 409.78776157 508.2424519 408.49127293 508.24260235 C405.03068457 508.2428903 401.57013058 508.23699394 398.10955024 508.23002839 C394.49671619 508.22379448 390.88388142 508.22319102 387.27104282 508.22200298 C380.42516201 508.21888978 373.57929709 508.21067654 366.73342329 508.20065349 C358.9415312 508.18949202 351.14963837 508.18398182 343.35774028 508.17895806 C327.32508324 508.16849391 311.29244219 508.15089468 295.2597971 508.12863445 C294.1347971 502.37863445 294.1347971 502.37863445 295.2597971 500.12863445 C335.1897971 500.12863445 375.1197971 500.12863445 416.2597971 500.12863445 C416.2597971 494.51863445 416.2597971 488.90863445 416.2597971 483.12863445 C356.5297971 483.12863445 296.7997971 483.12863445 235.2597971 483.12863445 C235.2597971 488.73863445 235.2597971 494.34863445 235.2597971 500.12863445 C237.29671726 500.12077923 237.29671726 500.12077923 239.37478733 500.11276531 C244.39349812 500.0947206 249.41220603 500.08320439 254.43093967 500.07370281 C256.60672582 500.06866138 258.78250856 500.06182838 260.95828342 500.053195 C264.07832776 500.04112107 267.19832748 500.03540441 270.31839085 500.0309782 C271.29754963 500.02581692 272.27670841 500.02065563 273.28553867 500.01533794 C274.18639698 500.01526241 275.08725529 500.01518688 276.01541233 500.01510906 C276.81261189 500.01288845 277.60981144 500.01066784 278.43116856 500.00837994 C280.2597971 500.12863445 280.2597971 500.12863445 281.2597971 501.12863445 C281.3847971 504.12863445 281.3847971 504.12863445 281.2597971 507.12863445 C279.60860935 508.7798222 277.67749254 508.26443476 275.40457249 508.27389812 C274.3700243 508.28027798 273.33547611 508.28665783 272.26957798 508.29323101 C270.58057629 508.29490025 270.58057629 508.29490025 268.85745335 508.2966032 C267.7094173 508.2999316 266.56138126 508.30326 265.37855625 508.30668926 C262.94484961 508.31176347 260.51113598 508.31409744 258.07742405 508.31393719 C254.34187517 508.316123 250.60662175 508.33427191 246.87112522 508.35324383 C244.51240228 508.3561777 242.15367793 508.35816254 239.79495335 508.3591032 C238.67097645 508.36628872 237.54699955 508.37347424 236.38896275 508.38087749 C235.3512624 508.37780087 234.31356205 508.37472424 233.24441624 508.37155437 C232.32809925 508.37297939 231.41178226 508.37440441 230.4676981 508.37587261 C228.2597971 508.12863445 228.2597971 508.12863445 226.2597971 506.12863445 C226.00100803 503.1794157 226.00100803 503.1794157 225.9941721 499.44113445 C225.99225864 498.78282635 225.99034519 498.12451824 225.98837376 497.44626141 C225.9870126 496.05424905 225.99070427 494.66222398 225.99905491 493.27023602 C226.0097561 491.13680856 225.99915803 489.00422315 225.9863596 486.87082195 C225.9876812 485.51925759 225.99024363 484.16769375 225.9941721 482.81613445 C225.99642796 481.58250164 225.99868382 480.34886883 226.00100803 479.0778532 C226.2597971 476.12863445 226.2597971 476.12863445 228.2597971 474.12863445 C230.68997288 473.90158367 230.68997288 473.90158367 233.7051096 473.93332195 C234.67464573 473.93831707 235.64418186 473.94331219 236.64309788 473.94845867 C237.87785862 473.96666668 239.11261936 473.98487469 240.3847971 474.00363445 C244.3035471 474.04488445 248.2222971 474.08613445 252.2597971 474.12863445 C252.2597971 460.59863445 252.2597971 447.06863445 252.2597971 433.12863445 C254.5697971 432.79863445 256.8797971 432.46863445 259.2597971 432.12863445 C267.03439962 443.79053824 261.2597971 460.11277043 261.2597971 474.12863445 C286.9997971 474.12863445 312.7397971 474.12863445 339.2597971 474.12863445 C339.2597971 465.21863445 339.2597971 456.30863445 339.2597971 447.12863445 C341.2597971 445.12863445 341.2597971 445.12863445 344.3222971 444.94113445 C347.2597971 445.12863445 347.2597971 445.12863445 348.2597971 446.12863445 C348.34746822 448.20125522 348.36675583 450.2768374 348.35745335 452.3512907 C348.35423069 453.6113493 348.35100803 454.87140789 348.34768772 456.16965008 C348.33933113 457.51014554 348.33086617 458.85064033 348.3222971 460.19113445 C348.3172837 461.53553387 348.31272051 462.87993505 348.30862522 464.22433758 C348.29679206 467.52578878 348.27885595 470.82721705 348.2597971 474.12863445 C352.8797971 474.12863445 357.4997971 474.12863445 362.2597971 474.12863445 C362.2597971 454.98863445 362.2597971 435.84863445 362.2597971 416.12863445 C368.2597971 415.12863445 368.2597971 415.12863445 370.2597971 416.12863445 C370.2597971 435.26863445 370.2597971 454.40863445 370.2597971 474.12863445 C377.1897971 474.12863445 384.1197971 474.12863445 391.2597971 474.12863445 C391.2597971 443.76863445 391.2597971 413.40863445 391.2597971 382.12863445 C348.3597971 382.12863445 305.4597971 382.12863445 261.2597971 382.12863445 C261.2597971 390.37863445 261.2597971 398.62863445 261.2597971 407.12863445 C260.2697971 408.11863445 259.2797971 409.10863445 258.2597971 410.12863445 C253.83874446 409.70758182 253.83874446 409.70758182 252.2597971 408.12863445 C252.15896946 405.69203 252.12007106 403.28438744 252.1269846 400.84738445 C252.12554951 399.75436016 252.12554951 399.75436016 252.12408543 398.63925457 C252.12340374 397.09583735 252.12525722 395.55241728 252.129426 394.00900555 C252.13477447 391.63866046 252.12948068 389.26850486 252.12307835 386.8981657 C252.12373913 385.40207153 252.1250203 383.90597748 252.1269846 382.40988445 C252.12496037 381.69634808 252.12293613 380.9828117 252.12085056 380.24765301 C252.14484518 375.24358637 252.14484518 375.24358637 253.2597971 374.12863445 C255.33241786 374.04096333 257.40800004 374.02167572 259.48245335 374.0309782 C260.61690891 374.03347576 261.75136448 374.03597332 262.92019749 374.03854656 C265.09923679 374.05220257 265.09923679 374.05220257 267.3222971 374.06613445 C274.2213596 374.09707195 274.2213596 374.09707195 281.2597971 374.12863445 C281.2597971 363.89863445 281.2597971 353.66863445 281.2597971 343.12863445 C278.9910471 342.75738445 276.7222971 342.38613445 274.3847971 342.00363445 C264.58929303 340.27210596 254.18973477 337.59360329 245.2597971 333.12863445 C243.1062497 333.02226272 240.94935591 332.98193744 238.79321384 332.97041607 C238.12180241 332.96547809 237.45039097 332.96054011 236.75863373 332.9554525 C234.49844466 332.94003784 232.23828408 332.9317062 229.97805882 332.92331219 C228.36201824 332.91373678 226.74598019 332.9037269 225.1299448 332.89331341 C220.73352533 332.86622174 216.33709508 332.8452353 211.94063807 332.82531142 C207.34950471 332.80347811 202.75840475 332.77607646 198.16729832 332.74925518 C189.4692216 332.69929233 180.77112639 332.65436685 172.07301342 332.61123282 C162.17228696 332.56189111 152.271594 332.50696163 142.37089992 332.45155323 C122.0005635 332.33767804 101.63019512 332.23085108 81.2597971 332.12863445 C82.19826668 334.51133906 83.14015753 336.89259627 84.08401585 339.2731657 C84.34662205 339.94094036 84.60922825 340.60871502 84.87979221 341.29672527 C94.98253861 366.72080377 114.37069771 386.92537318 139.2597971 398.12863445 C160.23074483 406.8856734 183.17643026 408.37950398 205.5722971 406.19113445 C206.52169163 406.10412273 207.47108616 406.01711102 208.44925022 405.92746258 C213.09422693 405.48986882 217.66059208 404.9239857 222.2597971 404.12863445 C225.04041381 403.87933778 227.44258714 403.94082046 230.2597971 404.12863445 C232.2597971 407.12863445 232.2597971 407.12863445 231.8847971 409.81613445 C231.6785471 410.57925945 231.4722971 411.34238445 231.2597971 412.12863445 C195.62949026 421.88145567 154.77319701 419.26420685 122.2597971 401.12863445 C102.3354821 388.66670196 86.84980672 370.32545926 76.7597971 349.25363445 C76.43350315 348.57671551 76.10720921 347.89979656 75.77102757 347.20236492 C73.5120885 342.26972682 72.30148382 337.45165359 71.2597971 332.12863445 C65.3197971 332.12863445 59.3797971 332.12863445 53.2597971 332.12863445 C53.2597971 378.98863445 53.2597971 425.84863445 53.2597971 474.12863445 C61.5097971 474.12863445 69.7597971 474.12863445 78.2597971 474.12863445 C78.9197971 474.45863445 79.5797971 474.78863445 80.2597971 475.12863445 C80.3847971 478.00363445 80.3847971 478.00363445 80.2597971 481.12863445 C78.2597971 483.12863445 78.2597971 483.12863445 75.83084202 483.37587261 C74.30100681 483.37373508 74.30100681 483.37373508 72.74026585 483.37155437 C71.58566868 483.374631 70.43107151 483.37770763 69.24148655 483.38087749 C67.98940403 483.37369198 66.73732151 483.36650646 65.4472971 483.3591032 C64.16749973 483.35864498 62.88770237 483.35818676 61.56912327 483.35771465 C58.8588631 483.35614965 56.14873499 483.34785899 53.43850803 483.334445 C49.96137529 483.31745509 46.48438775 483.31363066 43.00721836 483.31439018 C39.69555842 483.31405314 36.38394629 483.30521589 33.0722971 483.2966032 C31.82021458 483.29549038 30.56813206 483.29437756 29.27810764 483.29323101 C28.12351048 483.28685116 26.96891331 483.28047131 25.77932835 483.27389812 C24.24949314 483.26818043 24.24949314 483.26818043 22.68875217 483.26234722 C20.2597971 483.12863445 20.2597971 483.12863445 18.2597971 482.12863445 C18.21737986 479.7956867 18.21886772 477.46160878 18.2597971 475.12863445 C18.5897971 474.79863445 18.9197971 474.46863445 19.2597971 474.12863445 C27.5097971 474.12863445 35.7597971 474.12863445 44.2597971 474.12863445 C44.2597971 427.26863445 44.2597971 380.40863445 44.2597971 332.12863445 C28.4197971 332.12863445 12.5797971 332.12863445 -3.7402029 332.12863445 C-4.4002029 331.79863445 -5.0602029 331.46863445 -5.7402029 331.12863445 C-5.76306753 289.10560792 -5.78070024 247.0825821 -5.79126823 205.05955059 C-5.79251901 200.10381877 -5.79381333 195.14808696 -5.79513454 190.19235516 C-5.79539685 189.20571459 -5.79565917 188.21907403 -5.79592942 187.20253526 C-5.8002865 171.20502248 -5.80817425 155.20751327 -5.8173557 139.21000261 C-5.8266912 122.80786801 -5.83225829 106.4057353 -5.8342914 90.00359815 C-5.83566684 79.87407951 -5.84001858 69.74457097 -5.84811937 59.61505543 C-5.85338556 52.6787374 -5.85500749 45.74242462 -5.85370428 38.80610473 C-5.8530607 34.7979715 -5.85408065 30.789856 -5.85940838 26.78172588 C-5.86424246 23.11844355 -5.8645415 19.45519101 -5.8611018 15.79190736 C-5.86047317 13.82621766 -5.86481483 11.86052836 -5.86928421 9.89484364 C-5.86729316 8.74333205 -5.86530212 7.59182046 -5.86325073 6.40541458 C-5.86382031 4.90229165 -5.86382031 4.90229165 -5.8644014 3.36880261 C-5.6367678 -0.73702436 -3.61393164 0.00283581 0 0 Z M107.2597971 54.12863445 C105.55919638 56.46910766 104.42713391 58.46043603 103.2597971 61.12863445 C103.5897971 61.78863445 103.9197971 62.44863445 104.2597971 63.12863445 C104.82634007 62.47507977 104.82634007 62.47507977 105.40432835 61.80832195 C113.08343533 53.49977997 121.59320977 49.43124338 132.84182835 48.25363445 C143.46906039 47.8649814 152.2523356 51.28524854 160.5176096 57.94894695 C174.44931959 71.03310044 178.78764082 89.10443331 180.44339085 107.42550945 C180.5435651 108.48588421 180.64373936 109.54625896 180.7469492 110.63876629 C181.06843628 114.05163349 181.38286835 117.46511047 181.6972971 120.87863445 C181.91700595 123.22211407 182.13730438 125.56553849 182.35818577 127.90890789 C182.68703244 131.39834914 183.01554466 134.88781714 183.34208775 138.37747478 C184.21612312 147.7149297 185.13018811 157.04782757 186.0722971 166.37863445 C186.25780125 168.2208659 186.25780125 168.2208659 186.44705296 170.10031414 C186.71701404 172.77651907 186.98779376 175.45263647 187.2597971 178.12863445 C190.65396252 179.27944975 194.05040317 180.42340055 197.4472971 181.56613445 C198.40700413 181.89162273 199.36671116 182.21711102 200.35550022 182.55246258 C201.75252171 183.02135906 201.75252171 183.02135906 203.17776585 183.4997282 C204.03136692 183.78775311 204.88496799 184.07577801 205.76443577 184.37253094 C208.24790623 185.12503148 210.70839389 185.66310826 213.2597971 186.12863445 C213.4132223 111.54454446 213.4132223 111.54454446 181.04495335 46.69894695 C170.75189403 36.83398956 159.55416507 33.61451381 145.72464085 33.8512907 C130.28224433 34.51212138 117.08163273 42.61526046 107.2597971 54.12863445 Z M115.2597971 64.12863445 C104.46496431 74.11286624 98.71251685 87.48191482 97.94339085 102.0622282 C97.41397165 118.61109024 100.42502938 132.89978064 110.5722971 146.44113445 C117.10764329 152.97648064 125.23800912 158.05508107 134.6347971 158.56613445 C143.96383529 158.18076971 150.88884033 153.60967254 157.2597971 147.12863445 C157.80507053 146.59367352 158.35034397 146.05871258 158.91214085 145.5075407 C169.99583863 133.74697588 171.95979233 117.34217842 171.5410471 101.90988445 C170.82503299 86.65878396 164.38741335 73.53095153 153.2597971 63.12863445 C141.54183058 53.06775411 126.58482684 54.75828066 115.2597971 64.12863445 Z M293.5097971 134.72238445 C281.93107627 147.10518312 276.64765552 162.89476335 277.02151585 179.7184782 C278.0553895 194.51473557 283.77222329 211.07700737 295.2597971 221.12863445 C307.22489008 230.7605343 317.96042802 234.03352594 333.2597971 233.12863445 C346.68942879 230.90605866 357.48167375 222.10531717 365.30276585 211.30832195 C374.83168213 196.0701829 377.19750002 178.53640036 373.2597971 161.12863445 C370.80823094 152.97210796 367.43522696 145.8872935 362.2597971 139.12863445 C361.80991428 138.5150407 361.36003147 137.90144695 360.89651585 137.26925945 C353.35137369 127.66248691 342.32863569 121.94412693 330.3222971 120.25363445 C315.95659656 119.3685439 303.76518495 124.8614346 293.5097971 134.72238445 Z M174.2597971 138.12863445 C173.05733697 139.91758862 171.89781522 141.73551103 170.7597971 143.56613445 C167.34793269 149.04049886 167.34793269 149.04049886 166.2597971 150.12863445 C166.41078453 153.7485581 166.6662454 157.34697676 166.94339085 160.95871258 C167.36061165 166.92700534 167.36061165 166.92700534 166.2597971 169.12863445 C164.2797971 169.12863445 162.2997971 169.12863445 160.2597971 169.12863445 C159.2697971 164.17863445 159.2697971 164.17863445 158.2597971 159.12863445 C156.9397971 159.89175945 155.6197971 160.65488445 154.2597971 161.44113445 C147.29399768 164.97422004 139.90251069 165.96231464 132.2597971 167.12863445 C132.4763596 168.77412273 132.4763596 168.77412273 132.6972971 170.4528532 C132.88496236 171.90725897 133.07245316 173.36168726 133.2597971 174.81613445 C133.35518772 175.53736492 133.45057835 176.25859539 133.5488596 177.00168133 C134.02663444 180.73856316 134.37899504 184.35154976 134.2597971 188.12863445 C129.23527836 190.69409461 124.18414563 193.17830573 119.05398655 195.52658367 C102.72733462 203.01902486 87.77329675 211.11663476 74.2597971 223.12863445 C77.60274833 226.87884878 81.29028756 229.11021784 85.6347971 231.50363445 C86.34668186 231.89720135 87.05856663 232.29076824 87.79202366 232.69626141 C100.76525783 239.7559063 114.10270856 244.13209478 128.2597971 248.12863445 C129.2597971 252.87863445 129.2597971 252.87863445 129.2597971 255.12863445 C107.29152681 253.61358133 85.00946757 242.82758569 67.2597971 230.12863445 C63.03913774 234.45223672 60.13166037 238.91379209 57.4472971 244.31613445 C57.1455759 244.92215496 56.84385471 245.52817547 56.53299046 246.15256023 C54.21660613 250.94403064 53.11942862 254.58357812 53.1972971 259.87863445 C53.20632053 260.6778532 53.21534397 261.47707195 53.22464085 262.30050945 C53.23624241 262.9037907 53.24784397 263.50707195 53.2597971 264.12863445 C54.16471897 264.5482243 54.16471897 264.5482243 55.0879221 264.9762907 C59.57940744 267.22927771 63.42187725 269.22172571 65.6660471 273.98019695 C67.39902396 280.25083694 67.44474242 286.85254717 64.2597971 292.62863445 C61.44791324 297.08078389 58.58995355 297.46355623 53.2597971 300.12863445 C53.2597971 307.71863445 53.2597971 315.30863445 53.2597971 323.12863445 C58.2097971 323.12863445 63.1597971 323.12863445 68.2597971 323.12863445 C67.9297971 321.16925945 67.5997971 319.20988445 67.2597971 317.19113445 C66.41287252 311.73980301 66.07315748 306.63450306 66.2597971 301.12863445 C68.5697971 301.45863445 70.8797971 301.78863445 73.2597971 302.12863445 C73.37573215 302.72925701 73.49166721 303.32987957 73.61111546 303.94870281 C74.1358618 306.65530304 74.66649856 309.36071493 75.1972971 312.06613445 C75.37969944 313.0116618 75.56210178 313.95718914 75.75003147 314.93136883 C75.92727757 315.83048992 76.10452366 316.72961102 76.28714085 317.6559782 C76.44948215 318.48863201 76.61182346 319.32128582 76.77908421 320.17917156 C77.07959972 322.12085357 77.07959972 322.12085357 78.2597971 323.12863445 C80.20874669 323.22528413 82.16125165 323.25050566 84.11259556 323.24888897 C85.38450748 323.25026363 86.65641941 323.2516383 87.96687412 323.25305462 C89.38946652 323.249515 90.81205868 323.24588019 92.23465061 323.24215984 C93.72246391 323.24187798 95.21027734 323.24203569 96.69809055 323.24260235 C100.7495671 323.24289036 104.80101429 323.23699312 108.85248399 323.23002839 C113.08191706 323.22379537 117.31135074 323.2231911 121.5407877 323.22200298 C129.55539431 323.21888951 137.56998736 323.21067592 145.58458799 323.20065349 C154.70656394 323.18949284 163.82854052 323.18398203 172.95052159 323.17895806 C191.7202878 323.16849331 210.49004136 323.15089357 229.2597971 323.12863445 C228.84321339 322.65246181 228.42662968 322.17628918 227.99742222 321.68568707 C227.45341267 321.0586639 226.90940311 320.43164074 226.34890842 319.78561687 C225.53840786 318.85479542 225.53840786 318.85479542 224.71153355 317.90516949 C223.04435799 315.86499492 221.94070295 313.87869859 220.9472971 311.44113445 C220.48903538 310.35252117 220.48903538 310.35252117 220.02151585 309.2419157 C215.71044691 297.28146291 218.71534691 285.34993489 223.87600803 274.21481609 C227.74541808 266.21285364 232.33629597 259.77587162 238.2597971 253.12863445 C239.25946507 251.85246258 239.25946507 251.85246258 240.27932835 250.55050945 C242.12492625 248.29356527 243.98453858 246.45464716 246.1972971 244.56613445 C246.88694553 243.97574383 247.57659397 243.3853532 248.28714085 242.77707195 C250.58358928 240.8580596 252.90143207 238.97110713 255.2597971 237.12863445 C253.82387045 233.00880302 251.79728741 229.87045447 249.1972971 226.37863445 C248.48444553 225.4144157 247.77159397 224.45019695 247.03714085 223.45675945 C245.46195895 221.28647407 245.46195895 221.28647407 244.2597971 220.12863445 C235.83422238 220.18462848 227.64493663 222.19541397 219.5097971 224.19113445 C218.24498508 224.50059002 216.98017307 224.81004559 215.67703342 225.12887859 C194.86657998 230.31737543 171.4425263 236.81362497 155.4082346 251.8669157 C152.13952227 254.89221329 152.13952227 254.89221329 150.2597971 256.12863445 C147.3222971 256.00363445 147.3222971 256.00363445 145.2597971 255.12863445 C145.18164862 251.37750764 145.42843859 249.19260103 147.7676096 246.19894695 C170.21301673 224.94835236 206.0782791 218.12892104 235.2597971 212.12863445 C225.08614355 201.34985653 210.17550973 193.50792092 195.93557835 189.6091032 C195.02630589 189.35926678 194.11703342 189.10943035 193.18020725 188.85202312 C191.38941871 188.37800968 189.59065169 187.93297117 187.78469944 187.52048016 C186.96566135 187.30867107 186.14662327 187.09686199 185.30276585 186.87863445 C184.57082005 186.7084782 183.83887424 186.53832195 183.08474827 186.36300945 C180.67446803 184.73272492 180.27611457 182.973447 179.62992954 180.20917034 C178.95008299 176.38771354 178.54493883 172.55862829 178.1894846 168.6950407 C178.10353031 167.81710354 178.01757603 166.93916637 177.92901707 166.03462505 C177.65818255 163.25401085 177.39635306 160.47263519 177.1347971 157.69113445 C176.95179948 155.79589451 176.76821174 153.90071144 176.58401585 152.00558758 C176.13578093 147.38056653 175.69561529 142.75484137 175.2597971 138.12863445 C174.9297971 138.12863445 174.5997971 138.12863445 174.2597971 138.12863445 Z M100.2597971 148.12863445 C100.2597971 163.30863445 100.2597971 178.48863445 100.2597971 194.12863445 C112.87231682 188.87123898 112.87231682 188.87123898 125.2597971 183.12863445 C125.14465561 181.08638809 125.01722384 179.04483286 124.8847971 177.00363445 C124.81518772 175.86668133 124.74557835 174.7297282 124.6738596 173.55832195 C124.25422711 170.08249813 123.72384647 167.31214367 122.2597971 164.12863445 C120.14582207 162.56209897 120.14582207 162.56209897 117.5722971 161.62863445 C110.33948549 158.37699581 105.8496935 153.71853086 100.2597971 148.12863445 Z M247.3222971 255.50363445 C241.18423826 261.69780841 236.57023756 268.58069866 232.2597971 276.12863445 C231.80862522 276.91367352 231.35745335 277.69871258 230.8926096 278.5075407 C226.6231497 286.46992758 224.54608542 295.58832978 226.8769846 304.4841032 C231.47609255 316.30747365 241.65663007 321.69579576 252.6426096 326.6559782 C264.67891762 331.73321714 277.42911849 333.99693167 290.2597971 336.12863445 C291.05659885 336.26285809 291.85340061 336.39708172 292.67434788 336.53537273 C330.04963625 342.47897149 381.73767266 340.99574591 413.91995335 318.9762907 C419.84170907 314.30017976 424.94475322 308.77232696 426.2597971 301.12863445 C427.03932658 285.58676547 418.18544313 271.69390106 408.28250217 260.47775555 C399.03425822 250.31034115 389.11024034 242.0510161 377.2597971 235.12863445 C376.31306126 234.57320965 376.31306126 234.57320965 375.34719944 234.00656414 C373.47958368 232.93188929 371.59540438 231.89832473 369.6972971 230.87863445 C368.58225803 230.2753532 367.46721897 229.67207195 366.31839085 229.05050945 C363.29132454 227.77801366 363.29132454 227.77801366 360.63870335 229.2731657 C359.46114475 230.19162273 359.46114475 230.19162273 358.2597971 231.12863445 C344.33961599 240.31889487 330.06698084 243.46601464 313.6426096 240.4684782 C305.36133953 238.17474513 296.40879976 234.27763712 290.2597971 228.12863445 C275.65401075 228.12863445 257.24307088 245.8462829 247.3222971 255.50363445 Z M42.2597971 275.12863445 C39.61719083 278.76221807 39.14039632 280.34589601 39.8222971 284.81613445 C41.30541586 288.23375595 41.99956983 289.45194614 45.2597971 291.12863445 C48.71239812 292.40064536 49.96981129 292.24235438 53.4472971 290.87863445 C56.46377588 289.27052563 56.46377588 289.27052563 58.2597971 286.12863445 C58.95106649 280.20292705 58.95106649 280.20292705 56.0722971 275.19113445 C50.82720562 271.34473404 47.69644081 271.46480934 42.2597971 275.12863445 Z M290.2597971 345.12863445 C290.2597971 354.69863445 290.2597971 364.26863445 290.2597971 374.12863445 C313.6897971 374.12863445 337.1197971 374.12863445 361.2597971 374.12863445 C361.2597971 364.55863445 361.2597971 354.98863445 361.2597971 345.12863445 C357.5782346 345.37613445 357.5782346 345.37613445 353.8222971 345.62863445 C332.70123262 346.84282102 311.35695583 346.54693084 290.2597971 345.12863445 Z " fill="#000000" transform="translate(41.74020290374756,1.8713655471801758)"/>
<path d="M0 0 C0.79899719 0.00202423 1.59799438 0.00404846 2.42120361 0.00613403 C3.67722382 0.00350555 3.67722382 0.00350555 4.95861816 0.00082397 C7.74043825 -0.00359545 10.52219532 -0.00065624 13.30401611 0.00271606 C15.22833264 0.00204305 17.15264909 0.00107305 19.07696533 -0.00018311 C23.11554776 -0.0016602 27.15410812 0.00049485 31.19268799 0.00515747 C36.38170122 0.01085476 41.57066274 0.00757582 46.75967407 0.00158501 C50.73492831 -0.00202029 54.7101702 -0.00088216 58.6854248 0.0017128 C60.59928392 0.00238215 62.51314413 0.00155335 64.42700195 -0.00076675 C67.09697461 -0.00329277 69.76686232 0.00054658 72.43682861 0.00613403 C73.23582581 0.0041098 74.034823 0.00208557 74.85803223 0 C80.31475362 0.02126607 80.31475362 0.02126607 81.42901611 1.13552856 C81.55401611 4.13552856 81.55401611 4.13552856 81.42901611 7.13552856 C79.64293555 8.92160913 77.23638077 8.26178817 74.85803223 8.27105713 C74.05903503 8.2690329 73.26003784 8.26700867 72.43682861 8.2649231 C71.59948181 8.26667542 70.76213501 8.26842773 69.89941406 8.27023315 C67.11759397 8.27465258 64.3358369 8.27171337 61.55401611 8.26834106 C59.62969958 8.26901408 57.70538313 8.26998408 55.78106689 8.27124023 C51.74248447 8.27271733 47.70392411 8.27056228 43.66534424 8.26589966 C38.47633101 8.26020237 33.28736949 8.26348131 28.09835815 8.26947212 C24.12310391 8.27307742 20.14786203 8.27193929 16.17260742 8.26934433 C14.25874831 8.26867497 12.3448881 8.26950378 10.43103027 8.27182388 C7.76105761 8.2743499 5.09116991 8.27051055 2.42120361 8.2649231 C1.62220642 8.26694733 0.82320923 8.26897156 0 8.27105713 C-5.45672139 8.24979106 -5.45672139 8.24979106 -6.57098389 7.13552856 C-6.69598389 4.13552856 -6.69598389 4.13552856 -6.57098389 1.13552856 C-4.78490332 -0.650552 -2.37834854 0.00926896 0 0 Z " fill="#000000" transform="translate(53.57098388671875,501.8644714355469)"/>
<path d="M0 0 C13.18122168 0 28.69631579 9.58987874 38 18.4375 C41.69226804 22.37815698 44.13764323 25.92084518 46 31 C45.75 34 45.75 34 45 36 C42.75 36.75 42.75 36.75 40 37 C37.39952107 35.02994021 35.97147124 32.9541502 34.25 30.1875 C25.95046288 18.42982241 11.74144786 13.58835433 -1 8 C-2 7 -2 7 -2.1875 4.5625 C-2 2 -2 2 0 0 Z " fill="#000000" transform="translate(144,258)"/>
<path d="M0 0 C1 1 1 1 1.0625 4.0625 C1.041875 5.031875 1.02125 6.00125 1 7 C-2.96881381 8.82350905 -6.95354369 9.69447758 -11.19775391 10.59838867 C-22.6184347 13.05410982 -32.22334565 16.48223044 -42 23 C-46.54054054 22.45945946 -46.54054054 22.45945946 -48 21 C-48.32804248 18.13794818 -48.43212731 16.58914654 -46.69921875 14.2265625 C-34.44807201 4.47322238 -15.64095773 -1.35870946 0 0 Z " fill="#000000" transform="translate(263,236)"/>
<path d="M0 0 C2.3125 1.5 2.3125 1.5 3.171875 3.859375 C3.3125 6.5 3.3125 6.5 2.00390625 8.421875 C-6.00476143 15.29904284 -18.48241262 24.73673606 -29.375 25.75 C-31.6875 25.5 -31.6875 25.5 -33.6875 23.5 C-33.8125 20.375 -33.8125 20.375 -33.6875 17.5 C-32.66011719 17.00371094 -31.63273437 16.50742187 -30.57421875 15.99609375 C-16.97174636 9.36703166 -16.97174636 9.36703166 -4.55859375 0.76953125 C-2.6875 -0.5 -2.6875 -0.5 0 0 Z " fill="#000000" transform="translate(450.6875,293.5)"/>
<path d="M0 0 C2 2 2 2 2.44140625 4.35546875 C1.72251287 8.66246716 -1.27703471 10.03329597 -4.67089844 12.46484375 C-8.88084265 15.39941537 -13.2582006 18.02221605 -17.75 20.5 C-18.35078369 20.83813721 -18.95156738 21.17627441 -19.57055664 21.5246582 C-24.1288192 23.9303906 -27.91671322 24.78368992 -33 25 C-35 23 -35 23 -35.375 20.5625 C-35 18 -35 18 -33.453125 16.57421875 C-30.23082262 14.50640369 -26.8249583 12.89341271 -23.375 11.25 C-17.50216404 8.40836955 -12.24125007 5.33051516 -7.11328125 1.25 C-4.51982197 -0.28402398 -2.96624306 -0.39353142 0 0 Z " fill="#000000" transform="translate(437,279)"/>
<path d="M0 0 C2 2 2 2 2.125 4.625 C2.08375 5.40875 2.0425 6.1925 2 7 C0.46279297 7.79664063 0.46279297 7.79664063 -1.10546875 8.609375 C-2.46629356 9.3226349 -3.82696242 10.03619238 -5.1875 10.75 C-6.19780273 11.27207031 -6.19780273 11.27207031 -7.22851562 11.8046875 C-14.21569574 15.47527903 -14.21569574 15.47527903 -19.4375 21.25 C-21 23 -21 23 -24.1875 23.25 C-25.115625 23.1675 -26.04375 23.085 -27 23 C-28.25 20.875 -28.25 20.875 -29 18 C-25.0344353 9.31352495 -15.89889188 4.63092891 -7.578125 0.84765625 C-4.84386681 -0.0513347 -2.85652282 -0.31577208 0 0 Z " fill="#000000" transform="translate(239,256)"/>
<path d="M0 0 C1.09924805 0.00483398 1.09924805 0.00483398 2.22070312 0.00976562 C2.94966797 -0.00634766 3.67863281 -0.02246094 4.4296875 -0.0390625 C9.73760675 -0.04392769 9.73760675 -0.04392769 12.30273438 1.67773438 C13.28320312 3.32226562 13.28320312 3.32226562 13.03320312 5.94726562 C12.28320312 8.32226562 12.28320312 8.32226562 11.28320312 9.32226562 C9.95276688 9.42063772 8.61726968 9.45305155 7.28320312 9.45507812 C6.47882813 9.45636719 5.67445313 9.45765625 4.84570312 9.45898438 C4.00007812 9.45511719 3.15445313 9.45125 2.28320312 9.44726562 C1.43757812 9.45113281 0.59195313 9.455 -0.27929688 9.45898438 C-1.08367187 9.45769531 -1.88804687 9.45640625 -2.71679688 9.45507812 C-3.45929688 9.4539502 -4.20179688 9.45282227 -4.96679688 9.45166016 C-6.71679688 9.32226562 -6.71679688 9.32226562 -7.71679688 8.32226562 C-7.90429688 5.38476562 -7.90429688 5.38476562 -7.71679688 2.32226562 C-5.17479392 -0.21973733 -3.47455304 0.0350965 0 0 Z " fill="#000000" transform="translate(184.716796875,98.677734375)"/>
<path d="M0 0 C0.73734375 0.00773437 1.4746875 0.01546875 2.234375 0.0234375 C3.34039062 0.01183594 3.34039062 0.01183594 4.46875 0 C9.9810554 0.0201179 9.9810554 0.0201179 12.234375 2.2734375 C12.421875 5.3359375 12.421875 5.3359375 12.234375 8.2734375 C10.7122791 9.7955334 9.35227418 9.40303271 7.234375 9.40625 C6.43 9.40753906 5.625625 9.40882812 4.796875 9.41015625 C3.95125 9.40628906 3.105625 9.40242188 2.234375 9.3984375 C1.38875 9.40230469 0.543125 9.40617187 -0.328125 9.41015625 C-1.1325 9.40886719 -1.936875 9.40757813 -2.765625 9.40625 C-3.508125 9.40512207 -4.250625 9.40399414 -5.015625 9.40283203 C-6.765625 9.2734375 -6.765625 9.2734375 -7.765625 8.2734375 C-7.953125 5.3359375 -7.953125 5.3359375 -7.765625 2.2734375 C-5.20613501 -0.28605249 -3.49355305 0.01275019 0 0 Z " fill="#000000" transform="translate(151.765625,98.7265625)"/>
<path d="M0 0 C1.73849628 1.73849628 1.17216296 4.0786637 1.1875 6.4375 C1.20167969 7.42621094 1.21585938 8.41492188 1.23046875 9.43359375 C1 12 1 12 -1 14 C-4.125 13.625 -4.125 13.625 -7 13 C-8.49084832 8.52745503 -8.49084832 4.47254497 -7 0 C-4.31633121 -1.3418344 -2.84719317 -0.73004953 0 0 Z " fill="#000000" transform="translate(210,180)"/>
</svg>
