<?xml version="1.0" encoding="UTF-8"?>
<svg version="1.1" xmlns="http://www.w3.org/2000/svg" width="512" height="512">
<path d="M0 0 C9.31689989 0.45345117 18.57406902 0.47900707 27.89904022 0.29078293 C32.39982277 0.20676672 36.90126112 0.16725635 41.40260315 0.12508202 C45.02219306 0.08814825 48.63820717 0.02896669 52.25624084 -0.08531189 C71.77217605 -0.66958058 84.49883463 2.2630057 99.94566345 14.63174438 C103.52884312 17.42682216 107.34039854 19.82039342 111.188797 22.22901917 C112.54943278 23.10597233 113.90897754 23.98462304 115.266922 24.86573792 C118.04705418 26.66174654 120.82861919 28.45551864 123.610672 30.24855042 C124.69759338 30.94996155 124.69759338 30.94996155 125.80647278 31.6655426 C127.14276084 32.52784161 128.47959043 33.38930262 129.81721497 34.24952698 C130.44772766 34.65654846 131.07824036 35.06356995 131.7278595 35.48292542 C132.71914352 36.10335976 132.71914352 36.10335976 133.73045349 36.73632812 C136.313797 38.47901917 136.313797 38.47901917 139.35102844 40.93685913 C148.87839611 48.40940328 156.37733692 49.7865332 168.30698776 49.23247147 C171.06970544 49.10840889 173.82620732 49.05615445 176.59141541 49.02122498 C184.43488589 48.90981661 192.27303103 48.67408407 200.11213684 48.39405823 C236.81429686 47.14615759 236.81429686 47.14615759 246.00254822 54.95774841 C248.56552744 57.64446621 250.7857377 60.41792256 252.87007141 63.48855591 C255.18867767 66.68521642 258.09400654 69.15404175 261.063797 71.72901917 C262.10304981 72.68040264 263.13989387 73.63443129 264.173172 74.59230042 C265.79849689 76.08663358 267.42425199 77.58049736 269.05012512 79.07423401 C270.80547002 80.68747497 272.55964501 82.30198133 274.313797 83.91651917 C274.84199036 84.4008844 275.37018372 84.88524963 275.91438293 85.3842926 C277.38831519 86.7411412 278.85126873 88.10988605 280.313797 89.47901917 C281.18802307 90.11484924 282.06224915 90.75067932 282.96296692 91.40577698 C286.56951501 96.12062041 285.93671827 100.56719773 285.80207825 106.34230042 C285.79452515 107.86808716 285.79452515 107.86808716 285.78681946 109.42469788 C285.76071604 113.21392619 285.6909088 117.00275183 285.626297 120.79151917 C285.523172 129.26839417 285.420047 137.74526917 285.313797 146.47901917 C262.873797 146.80901917 240.433797 147.13901917 217.313797 147.47901917 C215.333797 151.43901917 213.353797 155.39901917 211.313797 159.47901917 C247.943797 159.97401917 247.943797 159.97401917 285.313797 160.47901917 C285.313797 185.55901917 285.313797 210.63901917 285.313797 236.47901917 C116.353797 236.47901917 -52.606203 236.47901917 -226.686203 236.47901917 C-226.686203 226.24901917 -226.686203 216.01901917 -226.686203 205.47901917 C-221.736203 205.47901917 -216.786203 205.47901917 -211.686203 205.47901917 C-211.686203 210.42901917 -211.686203 215.37901917 -211.686203 220.47901917 C-52.626203 220.47901917 106.433797 220.47901917 270.313797 220.47901917 C270.313797 205.95901917 270.313797 191.43901917 270.313797 176.47901917 C193.093797 176.47901917 115.873797 176.47901917 36.313797 176.47901917 C36.313797 171.19901917 36.313797 165.91901917 36.313797 160.47901917 C89.773797 159.98401917 89.773797 159.98401917 144.313797 159.47901917 C142.333797 155.51901917 140.353797 151.55901917 138.313797 147.47901917 C135.70626019 134.44133512 137.35296058 123.07504318 144.532547 111.86573792 C151.39686381 102.66815552 160.98919757 97.28229933 172.313797 95.47901917 C183.45123281 94.39026342 194.24701643 97.15960877 203.31770325 103.78370667 C211.96754411 111.13014685 215.58988763 118.58338171 218.313797 129.47901917 C235.473797 129.80901917 252.633797 130.13901917 270.313797 130.47901917 C270.251922 123.73464417 270.251922 123.73464417 270.188797 116.85401917 C270.19121399 115.44684631 270.19363098 114.03967346 270.19612122 112.58985901 C270.15769104 110.90690735 270.15769104 110.90690735 270.1184845 109.18995667 C270.10801086 108.04833069 270.09753723 106.90670471 270.08674622 105.73048401 C269.18684698 101.94499507 268.02842275 100.13738014 265.16053772 97.56758118 C261.7009138 95.52830456 258.40772424 96.21059481 254.55989075 96.69386292 C252.79798038 96.80735547 251.03556375 96.91319204 249.27278137 97.01222229 C246.53592428 97.19045536 243.83565832 97.40538094 241.11628723 97.76441956 C234.11689922 98.63615974 227.76326872 98.60796468 221.313797 95.47901917 C219.12674309 93.50232806 217.33290087 91.2810783 215.51603699 88.9651947 C206.26466207 77.26100757 197.2014114 66.10855405 181.69351196 63.85910034 C170.30424495 62.59232834 158.80278899 62.96522084 147.37212157 63.33666587 C141.62056952 63.49201281 135.86917332 63.47892746 130.11587524 63.48532104 C119.26891196 63.52215081 108.42984642 63.70578894 97.58566505 63.94508439 C85.22071966 64.21057481 72.85612475 64.30803246 60.48882711 64.39287698 C35.09330277 64.57078806 9.70437272 64.95485028 -15.686203 65.47901917 C-15.71305396 62.99978116 -15.73296848 60.52083077 -15.748703 58.04151917 C-15.75708191 57.33446838 -15.76546082 56.6274176 -15.77409363 55.89894104 C-15.78273888 54.09208357 -15.73840312 52.28514314 -15.686203 50.47901917 C-13.98037783 48.77319399 -11.77414405 49.33593815 -9.44082642 49.32080078 C-8.30354095 49.31101196 -7.16625549 49.30122314 -5.99450684 49.2911377 C-4.1063752 49.2825045 -4.1063752 49.2825045 -2.18009949 49.2736969 C-0.86322144 49.2637973 0.45365662 49.25389771 1.81044006 49.24369812 C5.43214655 49.21658483 9.05386615 49.19561018 12.67561841 49.17569613 C16.45664203 49.15387606 20.23762492 49.12646797 24.01861572 49.09963989 C31.18321036 49.04965903 38.34782753 49.00474029 45.51246637 48.96161753 C53.66713754 48.91229114 61.82176785 48.85735601 69.97639954 48.80193794 C86.7554944 48.68803513 103.53462666 48.58121426 120.313797 48.47901917 C119.61098886 48.03577616 118.90818071 47.59253315 118.18407536 47.13585854 C115.5218015 45.45361904 112.86230749 43.76708656 110.20449162 42.0778141 C108.51019123 41.00268503 106.81287052 39.93232037 105.11547089 38.86209106 C98.93640697 34.93026317 92.98552049 30.85490379 87.22212315 26.33330727 C74.69360396 16.77756751 63.16348608 16.63860858 47.876297 17.10401917 C45.40833261 17.12704356 42.94029653 17.14327622 40.47224426 17.15309143 C35.35605861 17.18331206 30.24256818 17.25192955 25.12727356 17.35157776 C17.27959211 17.49605812 9.43595882 17.49872526 1.5872345 17.46730042 C-0.92912278 17.45798315 -3.4454802 17.4487051 -5.96183777 17.43946838 C-7.17284149 17.43493652 -8.38384521 17.43040466 -9.63154602 17.42573547 C-18.64980968 17.40275745 -27.66800618 17.44669588 -36.686203 17.47901917 C-40.646203 27.70901917 -44.606203 37.93901917 -48.686203 48.47901917 C-42.416203 48.80901917 -36.146203 49.13901917 -29.686203 49.47901917 C-29.686203 54.75901917 -29.686203 60.03901917 -29.686203 65.47901917 C-31.95922302 65.44647034 -34.23224304 65.41392151 -36.57414246 65.38038635 C-77.03190344 64.86815432 -117.18379592 65.02635677 -157.22419357 71.41275024 C-159.60335667 71.78830744 -161.98461807 72.14625475 -164.36701965 72.50062561 C-182.10780935 75.1784167 -197.52712791 78.31994408 -210.686203 91.47901917 C-210.91813165 92.99371365 -211.09835539 94.51656478 -211.248703 96.04151917 C-211.393078 97.50589417 -211.537453 98.97026917 -211.686203 100.47901917 C-206.736203 100.47901917 -201.786203 100.47901917 -196.686203 100.47901917 C-196.686203 105.75901917 -196.686203 111.03901917 -196.686203 116.47901917 C-201.636203 116.47901917 -206.586203 116.47901917 -211.686203 116.47901917 C-211.686203 121.09901917 -211.686203 125.71901917 -211.686203 130.47901917 C-199.146203 130.47901917 -186.606203 130.47901917 -173.686203 130.47901917 C-173.686203 135.75901917 -173.686203 141.03901917 -173.686203 146.47901917 C-191.176203 146.47901917 -208.666203 146.47901917 -226.686203 146.47901917 C-227.36805276 130.73853977 -227.36805276 130.73853977 -227.51628113 123.95948792 C-227.61745109 119.35464638 -227.73621196 114.7556168 -227.96867371 110.1552887 C-229.18315203 85.47499603 -229.18315203 85.47499603 -225.12388611 78.97877502 C-221.33053663 75.0615703 -216.99782642 72.74276539 -212.01972961 70.6340332 C-209.41674308 69.34564593 -207.45948707 67.73129311 -205.21281433 65.89625549 C-198.94542024 61.40098736 -192.11823294 60.70098122 -184.67086029 59.75927544 C-182.13860834 59.43578677 -179.61461014 59.07321703 -177.08921814 58.70010376 C-169.91655928 57.6462281 -162.7365923 56.65137205 -155.54899597 55.70484924 C-134.75486962 52.94224916 -117.52287929 50.55271946 -100.68980408 37.0688324 C-98.00479307 34.93833542 -95.19510645 33.12493659 -92.30729675 31.27980042 C-91.4476532 30.69972229 -90.58800964 30.11964417 -89.70231628 29.52198792 C-87.85065239 28.27936401 -85.98379835 27.05926376 -84.10758972 25.85401917 C-79.21426327 22.68226427 -74.59381498 19.49984575 -70.25869751 15.58532715 C-49.26911511 -3.2512364 -26.96619036 -1.34664384 0 0 Z M-60.686203 29.47901917 C-64.67677086 32.16226668 -68.66432337 34.84991352 -72.64909363 37.54176331 C-74.00633694 38.45770735 -75.36440996 39.37242315 -76.72331238 40.28590393 C-78.67144927 41.5957846 -80.61660254 42.90998988 -82.561203 44.22511292 C-83.17366882 44.63555344 -83.78613464 45.04599396 -84.41716003 45.46887207 C-85.85804356 46.44642032 -87.27500214 47.45908875 -88.686203 48.47901917 C-88.686203 48.80901917 -88.686203 49.13901917 -88.686203 49.47901917 C-81.426203 49.47901917 -74.166203 49.47901917 -66.686203 49.47901917 C-65.510578 46.73589417 -64.334953 43.99276917 -63.123703 41.16651917 C-62.74914978 40.30631165 -62.37459656 39.44610413 -61.98869324 38.55982971 C-61.7019574 37.87702942 -61.41522156 37.19422913 -61.11979675 36.49073792 C-60.82129822 35.79424133 -60.52279968 35.09774475 -60.21525574 34.38014221 C-59.44089813 32.28328327 -59.44089813 32.28328327 -60.686203 29.47901917 Z M215.313797 65.47901917 C216.71531461 67.15400363 218.12558463 68.82232592 219.57551575 70.45558167 C221.313797 72.47901917 221.313797 72.47901917 222.70832825 74.50245667 C224.85626478 77.27947223 226.59103309 79.20273107 230.18928528 79.77980042 C234.91657236 80.08345731 239.59591535 79.83583374 244.313797 79.47901917 C242.36111796 77.08698734 240.37009389 74.77958458 238.313797 72.47901917 C237.76852356 71.81128479 237.22325012 71.14355042 236.66145325 70.45558167 C233.38519959 66.94274952 231.33844755 65.59552765 226.46614075 65.04151917 C222.72955006 64.97045111 219.03705829 65.17359539 215.313797 65.47901917 Z M158.313797 120.47901917 C154.00491096 127.52239056 151.98924149 134.38381882 153.7747345 142.60011292 C156.15841848 149.79322987 160.42609163 154.70100629 167.001297 158.41651917 C173.40218553 161.30507606 179.31626496 161.78845606 186.02082825 159.59230042 C193.20102677 156.3520609 198.05710927 151.86318473 201.188797 144.60401917 C203.51067139 137.38813407 202.88028708 131.29949933 199.50520325 124.54933167 C195.35088319 117.33034927 190.08600577 114.06975542 182.313797 111.47901917 C172.87212182 110.32250875 164.88488373 113.75511646 158.313797 120.47901917 Z " fill="#000000" transform="translate(226.6862030029297,137.52098083496094)"/>
<path d="M0 0 C9.90186581 7.23108733 14.20498126 15.56992506 17.125 27.25 C83.785 27.58 150.445 27.91 219.125 28.25 C219.125 33.53 219.125 38.81 219.125 44.25 C118.64 44.745 118.64 44.745 16.125 45.25 C14.145 49.21 12.165 53.17 10.125 57.25 C45.765 57.58 81.405 57.91 118.125 58.25 C118.125 63.53 118.125 68.81 118.125 74.25 C40.905 74.25 -36.315 74.25 -115.875 74.25 C-115.875 79.2 -115.875 84.15 -115.875 89.25 C-120.825 89.25 -125.775 89.25 -130.875 89.25 C-130.875 79.02 -130.875 68.79 -130.875 58.25 C-106.455 57.92 -82.035 57.59 -56.875 57.25 C-58.855 53.29 -60.835 49.33 -62.875 45.25 C-65.48253681 32.21231595 -63.83583642 20.84602401 -56.65625 9.63671875 C-43.22542249 -8.35941198 -18.75090564 -11.67148208 0 0 Z M-42.875 18.25 C-47.18388603 25.2933714 -49.19955551 32.15479965 -47.4140625 40.37109375 C-45.03037852 47.5642107 -40.76270537 52.47198712 -34.1875 56.1875 C-27.78661147 59.07605689 -21.87253203 59.5594369 -15.16796875 57.36328125 C-7.98777023 54.12304174 -3.13168773 49.63416556 0 42.375 C2.32187439 35.15911491 1.69149008 29.07048016 -1.68359375 22.3203125 C-5.8379138 15.10133011 -11.10279123 11.84073626 -18.875 9.25 C-28.31667518 8.09348959 -36.30391326 11.52609729 -42.875 18.25 Z " fill="#000000" transform="translate(130.875,239.75)"/>
<path d="M0 0 C24.75 0 49.5 0 75 0 C75 5.28 75 10.56 75 16 C50.25 16 25.5 16 0 16 C0 10.72 0 5.44 0 0 Z " fill="#000000" transform="translate(271,228)"/>
<path d="M0 0 C14.85 0 29.7 0 45 0 C45 5.28 45 10.56 45 16 C30.15 16 15.3 16 0 16 C0 10.72 0 5.44 0 0 Z " fill="#000000" transform="translate(437,328)"/>
<path d="M0 0 C10.23 0 20.46 0 31 0 C31 5.28 31 10.56 31 16 C20.77 16 10.54 16 0 16 C0 10.72 0 5.44 0 0 Z " fill="#000000" transform="translate(157,217)"/>
<path d="M0 0 C4.95 0 9.9 0 15 0 C15 5.28 15 10.56 15 16 C10.05 16 5.1 16 0 16 C0 10.72 0 5.44 0 0 Z " fill="#000000" transform="translate(407,328)"/>
<path d="M0 0 C4.95 0 9.9 0 15 0 C15 5.28 15 10.56 15 16 C10.05 16 5.1 16 0 16 C0 10.72 0 5.44 0 0 Z " fill="#000000" transform="translate(397,266)"/>
<path d="M0 0 C4.95 0 9.9 0 15 0 C15 5.28 15 10.56 15 16 C10.05 16 5.1 16 0 16 C0 10.72 0 5.44 0 0 Z " fill="#000000" transform="translate(100,266)"/>
<path d="M0 0 C4.95 0 9.9 0 15 0 C15 5.28 15 10.56 15 16 C10.05 16 5.1 16 0 16 C0 10.72 0 5.44 0 0 Z " fill="#000000" transform="translate(241,228)"/>
</svg>
