<?xml version="1.0" encoding="utf-8"?>
<!-- Generator: Adobe Illustrator 24.0.1, SVG Export Plug-In . SVG Version: 6.00 Build 0)  -->
<svg version="1.1" id="Layer_1" xmlns="http://www.w3.org/2000/svg" xmlns:xlink="http://www.w3.org/1999/xlink" x="0px" y="0px"
	 viewBox="0 0 246.2 278.4" style="enable-background:new 0 0 246.2 278.4;" xml:space="preserve">
<style type="text/css">
	.st0{fill:#D5AF34;}
	.st1{fill-rule:evenodd;clip-rule:evenodd;fill:#D5AF34;}
	.st2{fill-rule:evenodd;clip-rule:evenodd;fill:#1A263B;}
</style>
<g>
	<path class="st0" d="M82.2,59.2h28v44.1c-11.9,8.1-31.3,14.1-46.9,14.1c-34,0-59-23.9-59-56.2c0-32.1,25.8-55.9,61.2-55.9
		c16.7,0,34.7,6.4,46.3,16.6L93.3,44.4c-7.5-7.2-18.5-11.9-28-11.9c-15.8,0-27.7,12.4-27.7,28.8c0,16.7,12,28.9,28,28.9
		c4.5,0,10.6-1.6,16.6-4.2V59.2z"/>
	<path class="st0" d="M216.3,73.5c0,26.3-18.6,43.7-47.3,43.7s-47.4-17.4-47.4-43.7c0-26.4,18.8-43.7,47.4-43.7S216.3,47,216.3,73.5
		z M153.6,73.8c0,11.4,6.1,18.9,15.5,18.9c9.2,0,15.3-7.5,15.3-18.9c0-11.3-6.1-18.9-15.3-18.9C159.7,54.8,153.6,62.5,153.6,73.8z"
		/>
</g>
<path class="st1" d="M14.9,94.3h52.3l92.9,101l-55.7,59.9H52.1l58.7-61.7L14.9,94.3z"/>
<path class="st2" d="M140.9,163.7l25.1-27l51,0.1l-51.9,53.5L140.9,163.7z"/>
<path class="st2" d="M141.1,226.2l24.2-26.1l75.9,75.4l-50.8,0.4L141.1,226.2z"/>
</svg>
