<?xml version="1.0" encoding="UTF-8"?>
<svg version="1.1" xmlns="http://www.w3.org/2000/svg" width="512" height="512">
<path d="M0 0 C0.7734375 -0.00773438 1.546875 -0.01546875 2.34375 -0.0234375 C5.10217133 0.48627079 5.90146636 1.07137297 7.5 3.375 C8.23046875 6.29296875 8.23046875 6.29296875 8.6875 9.5625 C8.92533203 11.19251953 8.92533203 11.19251953 9.16796875 12.85546875 C9.27753906 13.68691406 9.38710938 14.51835937 9.5 15.375 C10.469375 15.52195312 11.43875 15.66890625 12.4375 15.8203125 C33.47487191 19.24130345 50.79538012 27.80761122 66.5 42.375 C68.02846661 45.43193322 67.73242445 48.00484547 67.5 51.375 C66.4375 53.75 66.4375 53.75 64.5 55.375 C61.3125 56.5 61.3125 56.5 57.5 56.375 C54.52437761 54.7582242 52.07487741 52.55933163 49.5 50.375 C32.2141342 36.71402625 13.38419962 31.0087678 -8.5 32.375 C-26.53525423 34.72903627 -41.63038609 42.7382245 -54.5 55.375 C-55.20125 56.05175781 -55.9025 56.72851562 -56.625 57.42578125 C-72.61929299 74.01361245 -75.33100588 95.16411165 -76.5 117.375 C-26.01 117.375 24.48 117.375 76.5 117.375 C75.64257929 98.05595854 75.64257929 98.05595854 70.390625 79.71875 C69.45290554 77.25106721 69.20105256 75.37919659 69.1875 72.75 C69.17074219 71.99460937 69.15398437 71.23921875 69.13671875 70.4609375 C69.59471222 67.83116852 70.40887706 66.98885488 72.5 65.375 C75.88240279 64.34557306 77.77833169 64.11726132 81.125 65.3125 C88.94999987 72.10789463 91.30423743 86.52191641 92.5 96.375 C92.61234428 100.00128446 92.59444994 103.62245311 92.5625 107.25 C92.55798828 108.22453125 92.55347656 109.1990625 92.54882812 110.203125 C92.53710906 112.59381434 92.52070219 114.9843744 92.5 117.375 C93.66917969 117.31699219 94.83835937 117.25898437 96.04296875 117.19921875 C97.5911058 117.15230551 99.13928617 117.10680702 100.6875 117.0625 C101.45642578 117.02060547 102.22535156 116.97871094 103.01757812 116.93554688 C107.19819525 116.84583406 109.00419264 117.02369608 112.515625 119.51171875 C115.98590482 124.51903195 115.23954796 129.51857968 114.5 135.375 C113.08744178 140.67702085 110.9591794 145.48945599 108.5 150.375 C109.66431549 150.36611755 110.82863098 150.35723511 112.02822876 150.3480835 C123.00454928 150.26697211 133.98080893 150.2070222 144.95736122 150.16775131 C150.60044477 150.14688294 156.24328624 150.11857852 161.88623047 150.07324219 C167.33272046 150.02975839 172.7789777 150.00585725 178.2256279 149.99549103 C180.30285684 149.98810427 182.38007314 149.97367963 184.45720291 149.95207977 C187.36839506 149.92301251 190.27862733 149.91904544 193.18994141 149.92089844 C194.04733917 149.90651733 194.90473694 149.89213623 195.78811646 149.87731934 C201.16602072 149.9143214 204.25251452 150.76887041 208.5 154.375 C210.90819566 157.98729349 210.78555689 160.60205199 210.76742554 164.77444458 C210.77195665 165.53428205 210.77648776 166.29411953 210.78115618 167.07698238 C210.79384749 169.63097271 210.79217676 172.18475109 210.79052734 174.73876953 C210.79650985 176.56695328 210.80331475 178.3951345 210.81088257 180.22331238 C210.8285831 185.19673436 210.83323979 190.17008756 210.83451414 195.143538 C210.83641192 199.29583111 210.84376849 203.44810815 210.85085833 207.60039508 C210.86715707 217.40092268 210.87202612 227.20141353 210.87060547 237.00195312 C210.86940523 247.10560427 210.89048013 257.20904139 210.9220928 267.3126384 C210.94827011 275.98878645 210.95897207 284.66486471 210.95769465 293.34105194 C210.95718523 298.52194029 210.96285691 303.70263872 210.98405075 308.8834877 C211.00345628 313.76072458 211.0035417 318.63759092 210.98901749 323.51484108 C210.98693081 325.30100739 210.99162183 327.08719701 211.0037384 328.87332344 C211.08269697 341.32349163 210.08470396 350.27166322 201.27734375 359.65625 C195.21140458 365.52221315 187.58110717 368.36504668 179.1875 368.8125 C174.25949639 368.64765481 169.8186694 367.07570685 165.19921875 365.4453125 C160.07709716 363.96330478 154.75966075 363.25161012 149.5 362.375 C149.5 381.845 149.5 401.315 149.5 421.375 C159.43232997 421.21718783 159.43232997 421.21718783 169.36376953 421.01464844 C170.60755371 421.0046582 171.85133789 420.99466797 173.1328125 420.984375 C174.40012207 420.96342773 175.66743164 420.94248047 176.97314453 420.92089844 C182.12003559 421.58358827 185.06395257 423.64449549 188.34790039 427.60180664 C189.89113666 431.31649636 189.94878918 434.78785456 189.93359375 438.74609375 C189.9388356 439.54604263 189.94407745 440.34599152 189.94947815 441.17018127 C189.95588297 442.85701338 189.95458131 444.54389023 189.94604492 446.23071289 C189.9375377 448.80110823 189.96631023 451.36927722 189.99804688 453.93945312 C189.99965926 455.58333267 189.99908065 457.22721613 189.99609375 458.87109375 C190.00732773 459.6337706 190.01856171 460.39644745 190.03013611 461.18223572 C189.96348399 466.32754339 189.02207787 469.38409435 185.5 473.375 C181.0696198 476.3094227 177.60494675 476.73531983 172.3515625 476.66796875 C171.69417084 476.66372391 171.03677917 476.65947906 170.35946655 476.65510559 C168.28087609 476.63844977 166.20329226 476.6008262 164.125 476.5625 C162.70704536 476.54743605 161.28907536 476.53375065 159.87109375 476.52148438 C156.4137411 476.48859038 152.95696897 476.43690165 149.5 476.375 C149.53609375 477.58929688 149.5721875 478.80359375 149.609375 480.0546875 C149.60196504 488.46869866 145.3115501 496.36778511 139.59765625 502.375 C131.05814002 510.5393178 123.28525664 512.96565877 111.6875 512.77563477 C101.62175615 512.37080706 94.88107832 509.33906825 87.5 502.375 C81.9319193 496.20037456 78.60281395 490.02358727 77.92578125 481.64453125 C77.84368408 480.65686768 77.76158691 479.6692041 77.67700195 478.65161133 C77.61859131 477.90032959 77.56018066 477.14904785 77.5 476.375 C76.3835762 476.38610306 75.2671524 476.39720612 74.11689758 476.40864563 C63.59650195 476.50999683 53.07620535 476.58495359 42.55543232 476.63406086 C37.14652983 476.66015629 31.73802139 476.6955539 26.3293457 476.75219727 C21.10978001 476.80651815 15.89059337 476.83642094 10.67076683 476.84938622 C8.67921163 476.8586259 6.6876772 476.87666901 4.69628334 476.90365028 C1.90684789 476.93994159 -0.8810208 476.94494532 -3.6706543 476.94262695 C-4.49424438 476.96060333 -5.31783447 476.97857971 -6.16638184 476.99710083 C-10.43138443 476.95873815 -12.03040261 476.74097654 -15.51277161 474.02702332 C-17.5 471.375 -17.5 471.375 -18.125 468.375 C-17.26395493 464.24198367 -15.82922508 462.95263062 -12.5 460.375 C-9.4582184 459.68220592 -6.50610286 459.76519104 -3.39868164 459.8425293 C-2.03678963 459.84607925 -2.03678963 459.84607925 -0.64738464 459.84970093 C1.31970819 459.85755834 3.28678124 459.87664015 5.25367546 459.90567589 C8.36879394 459.94962721 11.48238326 459.95995098 14.59779358 459.96089172 C23.4525919 459.96966813 32.30659158 460.03964448 41.16088867 460.13110352 C46.58094274 460.18476263 52.00002547 460.19964673 57.42032051 460.19150734 C59.4836529 460.19662838 61.54700687 460.21707751 63.61002922 460.25321007 C66.49756982 460.30351273 69.38140996 460.30482993 72.26928711 460.2956543 C73.11882965 460.32292099 73.96837219 460.35018768 74.84365845 460.37828064 C78.45813266 460.32266521 80.62099691 460.22437997 83.28878975 457.64649391 C84.88737149 455.5625439 84.88737149 455.5625439 86.19463444 453.41001606 C90.42627595 446.81304531 97.14146075 443.45131298 104.5 441.375 C115.68450313 439.18603296 125.92733702 441.15432813 135.5 447.375 C139.81639572 451.00568068 142.96697116 454.30894232 145.5 459.375 C154.74 459.705 163.98 460.035 173.5 460.375 C173.5 452.785 173.5 445.195 173.5 437.375 C58.99 437.375 -55.52 437.375 -173.5 437.375 C-173.5 444.965 -173.5 452.555 -173.5 460.375 C-168.91405395 460.36901313 -164.33498228 460.32178054 -159.75 460.25 C-157.79707031 460.25386719 -157.79707031 460.25386719 -155.8046875 460.2578125 C-152.27321233 460.18499858 -148.96780823 460.05081642 -145.5 459.375 C-142.72064562 456.74427109 -142.72064562 456.74427109 -141.5 453.375 C-133.89729546 445.06231527 -125.45998311 440.97594842 -114.22265625 440.34375 C-104.20789934 440.45869699 -94.82247795 443.87430698 -87.5625 450.875 C-85.60098993 452.91844047 -84.53709259 454.27621098 -83.53051758 456.95703125 C-81.79645647 459.51787621 -81.79645647 459.51787621 -79.52510071 459.81921387 C-76.85173994 459.96947681 -74.2161504 459.96135029 -71.5390625 459.90625 C-70.55634369 459.90951294 -69.57362488 459.91277588 -68.56112671 459.9161377 C-64.35315348 459.92932687 -60.14623346 459.8845457 -55.93847656 459.84521484 C-52.86750621 459.82474171 -49.79755961 459.83357313 -46.7265625 459.84375 C-45.77746002 459.82413208 -44.82835754 459.80451416 -43.85049438 459.78430176 C-39.24268869 459.80242858 -37.17306548 459.86572192 -33.39990234 462.72070312 C-31.5 465.375 -31.5 465.375 -30.875 468.375 C-31.73873814 472.52094305 -33.14702798 473.80092813 -36.5 476.375 C-39.66359388 477.05122963 -42.7343316 476.95876299 -45.95703125 476.86328125 C-46.85999435 476.85620651 -47.76295746 476.84913177 -48.69328308 476.84184265 C-51.56721088 476.81393319 -54.43916472 476.75120232 -57.3125 476.6875 C-59.26494575 476.66241262 -61.21742215 476.63960022 -63.16992188 476.61914062 C-67.94737102 476.56411789 -72.72335126 476.47786998 -77.5 476.375 C-77.56477539 477.45841675 -77.56477539 477.45841675 -77.63085938 478.5637207 C-78.37491556 488.78510719 -81.21420232 496.73110736 -88.875 503.875 C-99.20648387 512.25517495 -109.53468591 513.43339299 -122.5 512.375 C-130.75397804 510.77815196 -137.1066345 505.659524 -142.5 499.375 C-147.30469696 491.60756901 -149.55843949 485.43837452 -149.5 476.375 C-150.37736816 476.39071045 -151.25473633 476.4064209 -152.15869141 476.42260742 C-155.43511952 476.47394376 -158.71111598 476.51144997 -161.98779297 476.53979492 C-163.40192437 476.55481825 -164.81600968 476.57524305 -166.22998047 476.60131836 C-168.27062397 476.63798954 -170.31064792 476.65479036 -172.3515625 476.66796875 C-173.57697754 476.6836792 -174.80239258 476.69938965 -176.06494141 476.71557617 C-181.35558853 476.19102374 -184.32522969 474.70849658 -187.84179688 470.71679688 C-189.90024753 466.56837629 -190.07987628 463.4676856 -190.03125 458.90625 C-190.03699036 457.7084491 -190.03699036 457.7084491 -190.04284668 456.4864502 C-190.04555711 454.80556978 -190.03825688 453.12464657 -190.02148438 451.44384766 C-190.00006 448.88217454 -190.02131321 446.32330544 -190.046875 443.76171875 C-190.04423157 442.12238969 -190.03910626 440.48306237 -190.03125 438.84375 C-190.03934692 438.08421021 -190.04744385 437.32467041 -190.05578613 436.54211426 C-189.96592507 431.40395641 -188.95272741 428.40170266 -185.5 424.375 C-181.4936807 421.13475132 -178.29859591 421.01946178 -173.23046875 421.08203125 C-171.98418701 421.08952393 -170.73790527 421.0970166 -169.45385742 421.10473633 C-167.88095947 421.13204834 -166.30806152 421.15936035 -164.6875 421.1875 C-157.1696875 421.2803125 -157.1696875 421.2803125 -149.5 421.375 C-149.5 401.905 -149.5 382.435 -149.5 362.375 C-159.17277513 363.89950772 -159.17277513 363.89950772 -168.1875 366.5 C-177.23550661 369.37597353 -184.70485319 369.16258742 -193.5 365.375 C-201.84049418 360.43194488 -207.41665179 353.54916085 -210.5 344.375 C-211.0248518 340.97976914 -211.06276242 337.66146167 -211.03125 334.23046875 C-211.03699036 332.83215569 -211.03699036 332.83215569 -211.04284668 331.40559387 C-211.04555 329.45178129 -211.03830049 327.49793153 -211.02148438 325.54418945 C-210.99992964 322.5527352 -211.02140182 319.56364922 -211.046875 316.57226562 C-211.04423382 314.66666138 -211.03911318 312.7610586 -211.03125 310.85546875 C-211.03934692 309.96377487 -211.04744385 309.07208099 -211.05578613 308.15336609 C-210.96292955 302.02946728 -210.96292955 302.02946728 -208.68554688 298.80981445 C-205.49027748 296.71211581 -203.23717692 296.90785289 -199.5 297.375 C-196.93683367 298.72403491 -195.78639584 299.46914773 -194.90730286 302.24966431 C-194.24803362 305.68977875 -194.34309969 309.1578603 -194.32421875 312.6484375 C-194.30102223 314.29428365 -194.27690496 315.94011703 -194.25195312 317.5859375 C-194.21685848 320.16870714 -194.18749478 322.75100535 -194.17407227 325.33398438 C-194.1585471 327.83520856 -194.11831769 330.33507476 -194.07421875 332.8359375 C-194.07612717 333.6017514 -194.07803558 334.36756531 -194.08000183 335.15658569 C-193.96286812 340.32327339 -192.85441162 343.24306792 -189.5 347.375 C-185.84974078 350.36868154 -181.96365888 351.72574413 -177.25 351.375 C-173.62801675 350.78981563 -170.42074972 349.61631034 -167 348.3125 C-156.73386299 344.7331189 -144.94602206 344.79922129 -134.91015625 349.11328125 C-130.86723682 351.22975285 -127.18117912 353.68564116 -123.5 356.375 C-121.75319084 357.62945516 -120.00314393 358.87941325 -118.25 360.125 C-117.46109375 360.69734375 -116.6721875 361.2696875 -115.859375 361.859375 C-109.08823747 366.20904613 -102.35793757 366.18580805 -94.5 365.375 C-87.13346456 363.1915377 -81.38636229 358.09047717 -75.3984375 353.46484375 C-65.42249281 346.27194563 -54.50730823 345.35688762 -42.5 346.375 C-33.26089739 348.07751069 -26.78466983 352.70188643 -19.5 358.375 C-17.84577048 359.53871668 -16.17993558 360.6862104 -14.5 361.8125 C-13.79875 362.28558594 -13.0975 362.75867188 -12.375 363.24609375 C-6.35278251 366.87197053 3.08770428 366.41274806 9.80859375 364.83203125 C14.9322947 362.48504565 19.18124745 358.52166322 23.56274414 355.0300293 C28.19395294 351.41643129 32.83847274 349.03279527 38.5 347.375 C39.09425781 347.18550781 39.68851562 346.99601562 40.30078125 346.80078125 C53.06050993 344.33042525 65.02837284 346.77032061 75.9140625 353.62109375 C79.683234 356.17752578 83.33520276 358.88011761 86.95703125 361.640625 C93.7198607 366.25306168 100.52599522 366.19778425 108.5 365.375 C115.86497986 363.19199878 121.61374386 358.09332683 127.59765625 353.46484375 C137.50082764 346.3340272 148.58265772 345.02697695 160.5 346.375 C163.24620189 347.0388821 165.85880819 347.93976913 168.5 348.9375 C174.22181453 351.07332048 178.59823675 352.41649043 184.5 350.375 C189.40371286 347.83233407 190.55232244 346.28779593 193.5 341.375 C193.83 283.625 194.16 225.875 194.5 166.375 C66.13 166.375 -62.24 166.375 -194.5 166.375 C-194.5 202.345 -194.5 238.315 -194.5 275.375 C-196.5 280.375 -196.5 280.375 -198.75 282.25 C-202.19001617 283.65727934 -203.96931836 283.44955528 -207.5 282.375 C-209.15840149 281.20304871 -209.15840149 281.20304871 -210.5 279.375 C-210.86076355 276.62251282 -210.86076355 276.62251282 -210.84057617 273.2512207 C-210.84034958 271.99013992 -210.84012299 270.72905914 -210.83988953 269.42976379 C-210.82456963 268.05343268 -210.80892164 266.67710518 -210.79296875 265.30078125 C-210.7873726 263.89259798 -210.78310259 262.48440886 -210.78010559 261.07621765 C-210.76865818 257.37218056 -210.73919235 253.6684971 -210.70599365 249.96459961 C-210.67529026 246.18413069 -210.66159971 242.40360457 -210.64648438 238.62304688 C-210.61432216 231.20687014 -210.56312755 223.79098464 -210.5 216.375 C-211.76481201 216.38547363 -213.02962402 216.39594727 -214.33276367 216.40673828 C-219.08338524 216.44329227 -223.8339947 216.46602765 -228.5847168 216.48486328 C-230.62998555 216.49484099 -232.67524034 216.50842795 -234.72045898 216.52587891 C-255.25317329 216.69652478 -272.74059427 216.42951814 -288.40625 201.56640625 C-298.70160397 190.70661401 -302.17182779 177.64451927 -301.9375 163.04296875 C-301.16278174 156.54778616 -298.50283573 151.81232994 -293.42578125 147.69140625 C-286.67352114 143.28558773 -280.47839135 142.53926108 -272.5 143.375 C-266.17278761 145.2634567 -261.50969804 148.45384626 -257.80078125 153.91796875 C-255.66717299 157.94811768 -254.20259189 162.1965926 -252.7734375 166.51953125 C-251.31196147 169.79664467 -250.614631 170.65478539 -247.5 172.375 C-244.60503145 172.70006907 -241.91313948 172.86324309 -239.015625 172.88671875 C-238.20003113 172.90466995 -237.38443726 172.92262115 -236.54412842 172.94111633 C-233.94613777 172.9951802 -231.34833042 173.02910182 -228.75 173.0625 C-226.9856516 173.09567661 -225.22132737 173.13016659 -223.45703125 173.16601562 C-219.13815317 173.2509042 -214.81932908 173.31773377 -210.5 173.375 C-210.54640625 172.27800781 -210.5928125 171.18101562 -210.640625 170.05078125 C-210.6781579 168.5963815 -210.71455643 167.14195217 -210.75 165.6875 C-210.78351563 164.96626953 -210.81703125 164.24503906 -210.8515625 163.50195312 C-210.92104224 159.69793727 -210.76451678 157.80864366 -208.734375 154.48046875 C-205.50330216 151.43580395 -202.89499197 150.13217908 -198.45037842 150.0965271 C-197.65394928 150.08536362 -196.85752014 150.07420013 -196.03695679 150.06269836 C-194.74007431 150.05945808 -194.74007431 150.05945808 -193.41699219 150.05615234 C-192.49957245 150.04610672 -191.58215271 150.0360611 -190.63693237 150.02571106 C-187.60691957 149.99483971 -184.5769953 149.97783284 -181.546875 149.9609375 C-179.44508094 149.94222904 -177.3432944 149.92265587 -175.24151611 149.9022522 C-169.7112268 149.85089101 -164.18091312 149.81128654 -158.6505127 149.77410889 C-153.00653029 149.73409429 -147.36264958 149.68299033 -141.71875 149.6328125 C-130.64590473 149.53600597 -119.57300209 149.45161624 -108.5 149.375 C-108.84933594 148.71113281 -109.19867188 148.04726562 -109.55859375 147.36328125 C-110.01363281 146.48027344 -110.46867188 145.59726563 -110.9375 144.6875 C-111.38996094 143.81738281 -111.84242188 142.94726562 -112.30859375 142.05078125 C-114.29960748 137.57916025 -114.71382569 133.23502547 -114.875 128.375 C-114.92398438 127.364375 -114.97296875 126.35375 -115.0234375 125.3125 C-114.28252864 121.15456371 -112.92901759 119.80407182 -109.5 117.375 C-106.52885089 116.79828158 -103.6994023 116.89839803 -100.6875 117.0625 C-99.89923828 117.08505859 -99.11097656 117.10761719 -98.29882812 117.13085938 C-96.36506071 117.18945839 -94.43227833 117.27913173 -92.5 117.375 C-92.54640625 116.06789063 -92.5928125 114.76078125 -92.640625 113.4140625 C-93.24312303 89.10109085 -87.3821377 68.73518634 -72.5 49.375 C-71.95988281 48.65054688 -71.41976562 47.92609375 -70.86328125 47.1796875 C-55.80635497 28.44386488 -32.71056159 18.67425688 -9.5 15.375 C-8.84 15.375 -8.18 15.375 -7.5 15.375 C-7.53480469 14.54355469 -7.56960938 13.71210938 -7.60546875 12.85546875 C-7.63253906 11.76878906 -7.65960938 10.68210937 -7.6875 9.5625 C-7.72230469 8.48355469 -7.75710938 7.40460937 -7.79296875 6.29296875 C-7.5 3.375 -7.5 3.375 -6.26953125 1.51171875 C-4.04164299 0.08055874 -2.6362878 -0.02636288 0 0 Z M-97.5 133.375 C-96.58202806 137.96485968 -96.32290468 139.15064571 -93.5 142.4375 C-92.695625 143.41396484 -92.695625 143.41396484 -91.875 144.41015625 C-83.77047013 151.11505514 -74.86527841 150.94576951 -64.82592773 150.87670898 C-63.25138874 150.88049751 -61.67685308 150.88600194 -60.10232544 150.89308167 C-55.84818148 150.90698292 -51.59444437 150.89590477 -47.34032321 150.87937045 C-42.87711227 150.86546589 -38.41392366 150.87198608 -33.95069885 150.87550354 C-26.4583586 150.87820112 -18.96617898 150.86476808 -11.47387695 150.84155273 C-2.82426496 150.81493613 5.82507875 150.81320068 14.47471768 150.8249411 C22.81322175 150.83573693 31.15162923 150.82951827 39.49012566 150.81538582 C43.03100824 150.80964265 46.57181975 150.8096955 50.11270332 150.81445122 C54.28496695 150.81923937 58.45693846 150.80904361 62.62914658 150.78749657 C64.15610074 150.78195384 65.68308313 150.78144019 67.21003914 150.78644943 C79.68062674 150.9355379 79.68062674 150.9355379 90.7421875 145.69140625 C91.28101563 145.11261719 91.81984375 144.53382813 92.375 143.9375 C93.20644531 143.07318359 93.20644531 143.07318359 94.0546875 142.19140625 C96.42645281 139.21067417 97.5 137.2208965 97.5 133.375 C33.15 133.375 -31.2 133.375 -97.5 133.375 Z M-283.875 160.8125 C-286.74610567 165.34001278 -285.98310412 169.79179039 -285.02734375 174.90234375 C-282.52787919 184.61583176 -276.94128112 191.12993212 -268.5 196.375 C-260.94728663 200.445515 -253.43339901 200.51793256 -245.0703125 200.47265625 C-244.07998016 200.4712413 -243.08964783 200.46982635 -242.06930542 200.46836853 C-238.92117227 200.46279252 -235.77311148 200.45024442 -232.625 200.4375 C-230.48437603 200.4324819 -228.34375094 200.42791954 -226.203125 200.42382812 C-220.96872232 200.41283094 -215.73437341 200.39558284 -210.5 200.375 C-210.5 196.745 -210.5 193.115 -210.5 189.375 C-211.62905762 189.3656543 -212.75811523 189.35630859 -213.92138672 189.34667969 C-218.1524042 189.30649108 -222.38271641 189.24065536 -226.61328125 189.16748047 C-228.43643054 189.13943698 -230.25969766 189.11814064 -232.08300781 189.10400391 C-254.9712791 188.91598415 -254.9712791 188.91598415 -262.75 181.5625 C-265.94217906 177.44152308 -267.62714631 172.50135174 -269.32128906 167.61791992 C-270.70956143 163.74586437 -271.80916006 161.34967118 -275.5 159.375 C-279.04522444 158.8579881 -280.79645272 158.94916875 -283.875 160.8125 Z M-74.9765625 373.44140625 C-86.14085194 381.99608624 -97.94792516 382.41615794 -111.5 381.375 C-118.03448919 379.98889623 -123.21519071 376.49750394 -128.58984375 372.64453125 C-130.57629956 371.20415016 -130.57629956 371.20415016 -133.5 370.375 C-133.5 387.205 -133.5 404.035 -133.5 421.375 C-45.39 421.375 42.72 421.375 133.5 421.375 C133.5 404.545 133.5 387.715 133.5 370.375 C128.45492018 373.23867788 128.45492018 373.23867788 123.625 376.4375 C113.04644641 382.99620323 100.29742862 382.70434118 88.3203125 380.89453125 C81.38462045 378.81803986 75.82022747 374.17389398 70.24316406 369.70410156 C62.03667587 363.16114635 55.08834044 361.27474458 44.5 362.375 C37.70565056 363.94549717 32.64857973 368.45984036 27.31665039 372.7199707 C16.00477208 381.64776854 4.44507591 382.42050623 -9.5 381.375 C-18.22243824 379.75820802 -24.64707744 374.75256638 -31.5 369.375 C-47.13439768 357.4016321 -60.97864337 361.76175448 -74.9765625 373.44140625 Z M-129.0234375 463.71484375 C-133.02772495 468.21701879 -134.07660732 473.26223924 -133.84765625 479.10546875 C-133.02381437 484.48358259 -130.59168833 488.69833145 -126.5 492.25 C-120.21133174 496.70447335 -115.17754106 497.32114113 -107.5 496.375 C-101.58514919 494.20654406 -97.38920435 489.91780835 -94.5 484.375 C-92.71001548 478.50339472 -93.06031341 472.93459477 -95.3984375 467.296875 C-98.96122224 461.08095269 -104.87784451 458.32907867 -111.5 456.375 C-118.55995777 456.375 -123.93127617 458.98308653 -129.0234375 463.71484375 Z M99.5859375 461.98828125 C95.53806205 466.48481284 93.80830935 470.65160076 93.125 476.6875 C93.746459 482.79851351 95.7558147 488.23057407 100.5 492.3125 C106.82226885 496.65905984 111.83823044 497.33763259 119.5 496.375 C125.60676404 493.9913921 129.59418249 489.80547153 132.75 484.125 C134.49958288 477.70986278 134.12788836 472.05153017 130.828125 466.23046875 C126.82652897 460.6400037 122.30667267 457.65927786 115.5 456.375 C109.59742292 456.375 104.15835542 458.13438615 99.5859375 461.98828125 Z " fill="#000000" transform="translate(301.5,-0.375)"/>
<path d="M0 0 C2.65977478 1.30664062 2.65977478 1.30664062 5 4 C5.76743319 7.79139638 5.67204456 11.54954027 5.63110352 15.40625 C5.63825882 16.5708374 5.64541412 17.7354248 5.65278625 18.93530273 C5.66971547 22.79059903 5.65024401 26.6447395 5.62890625 30.5 C5.62973455 33.17514607 5.63213687 35.85025171 5.63621521 38.52539062 C5.64073553 44.13425036 5.62487066 49.74277653 5.59692383 55.3515625 C5.56487175 61.83419355 5.56488757 68.31622303 5.5821386 74.79889679 C5.5980079 81.03747595 5.59126769 87.27583476 5.57420158 93.5144043 C5.56901107 96.16820786 5.56951205 98.82202876 5.57574654 101.47583008 C5.58118477 105.18218494 5.56086586 108.88751215 5.53344727 112.59375 C5.53997314 113.69517334 5.54649902 114.79659668 5.55322266 115.93139648 C5.5404982 116.94081299 5.52777374 117.95022949 5.5146637 118.99023438 C5.51185678 119.86627319 5.50904985 120.74231201 5.50615788 121.64489746 C4.83294876 124.77727292 3.43856419 125.99319211 1 128 C-1 128.56640625 -1 128.56640625 -3 128.5625 C-3.99 128.59537109 -3.99 128.59537109 -5 128.62890625 C-8.32317654 127.583923 -9.20471389 125.97821922 -11 123 C-11.59766034 119.25990469 -11.53592681 115.55217996 -11.50170898 111.77148438 C-11.50711197 110.63761795 -11.51251495 109.50375153 -11.51808167 108.33552551 C-11.5305875 104.58800139 -11.51406449 100.84124268 -11.49609375 97.09375 C-11.49624869 94.48970499 -11.4977369 91.88565975 -11.50050354 89.28161621 C-11.50320345 83.82420926 -11.48974919 78.36702252 -11.46655273 72.90966797 C-11.43994416 66.60604357 -11.43819659 60.30278728 -11.4499411 53.99912596 C-11.46073175 47.92769275 -11.45442036 41.85641364 -11.44038582 35.7849884 C-11.43586726 33.20457852 -11.43553804 30.62415782 -11.43945122 28.04374695 C-11.44235919 24.43844353 -11.42587504 20.83374291 -11.40405273 17.22851562 C-11.40855438 16.16031082 -11.41305603 15.09210602 -11.41769409 13.99153137 C-11.32587353 4.8684324 -11.32587353 4.8684324 -8 1 C-5.14675563 -0.42662219 -3.16545451 -0.31033868 0 0 Z " fill="#000000" transform="translate(446,202)"/>
<path d="M0 0 C3.1359157 1.77984405 3.84102736 2.52308207 5 6 C5.09551877 7.574776 5.13489568 9.15326605 5.14044189 10.73092651 C5.14900711 12.19033661 5.14900711 12.19033661 5.15774536 13.67922974 C5.15886322 14.74527435 5.15998108 15.81131897 5.16113281 16.90966797 C5.16609772 18.03348877 5.17106262 19.15730957 5.17617798 20.31518555 C5.19080887 24.04085904 5.19760281 27.76648997 5.203125 31.4921875 C5.20887523 34.07667035 5.21463298 36.66115317 5.22039795 39.24563599 C5.2295661 43.97451689 5.23586565 48.70338072 5.2388947 53.43226898 C5.24337573 60.38937672 5.26092734 67.34628801 5.2898953 74.30333602 C5.31412521 80.33200935 5.3218394 86.36058979 5.32357025 92.38931656 C5.32660095 94.95299474 5.33464345 97.51667201 5.34775543 100.08031845 C5.36477852 103.6642121 5.36294464 107.24762548 5.35644531 110.83154297 C5.3656601 111.89353912 5.37487488 112.95553528 5.3843689 114.04971313 C5.33273241 123.12298094 5.33273241 123.12298094 2 127 C-1.09173752 128.54586876 -3.59429552 128.29359521 -7 128 C-9.53430629 126.0292558 -10.82406737 124.81859713 -11.50615788 121.64489746 C-11.5089648 120.76885864 -11.51177172 119.89281982 -11.5146637 118.99023438 C-11.52738815 117.98081787 -11.54011261 116.97140137 -11.55322266 115.93139648 C-11.54669678 114.82997314 -11.5401709 113.7285498 -11.53344727 112.59375 C-11.54206284 111.4291626 -11.55067841 110.2645752 -11.55955505 109.06469727 C-11.58228484 105.20957304 -11.57546308 101.35517155 -11.56640625 97.5 C-11.57031646 95.50078982 -11.57423667 93.50157926 -11.57970566 91.50237274 C-11.59670294 85.21764481 -11.59314028 78.93315969 -11.57641602 72.6484375 C-11.55948801 66.1657439 -11.57533802 59.68372332 -11.6076389 53.20110321 C-11.63433032 47.63322722 -11.64161232 42.0655608 -11.63312382 36.49762726 C-11.62819389 33.17296522 -11.63251047 29.84879813 -11.65091133 26.52416992 C-11.66828033 22.81769363 -11.65387599 19.11266723 -11.63110352 15.40625 C-11.64279572 14.30482666 -11.65448792 13.20340332 -11.66653442 12.06860352 C-11.57361143 4.65606288 -11.57361143 4.65606288 -8.65196228 1.31445312 C-5.43508047 -0.28000407 -3.54753897 -0.52835687 0 0 Z " fill="#000000" transform="translate(352,202)"/>
<path d="M0 0 C4.21473736 0.87807028 5.42640654 2.15794449 8 5.625 C8.74574022 9.39432275 8.67268248 13.11338646 8.63110352 16.9453125 C8.63825882 18.0889325 8.64541412 19.23255249 8.65278625 20.41082764 C8.66969435 24.19095813 8.65025637 27.96990629 8.62890625 31.75 C8.62973474 34.37646584 8.63219338 37.00293164 8.63621521 39.62939453 C8.64073304 45.13392752 8.62488611 50.63812036 8.59692383 56.14257812 C8.56487286 62.50081365 8.56488837 68.85843578 8.5821386 75.21671486 C8.59801869 81.34050835 8.59116297 87.46404151 8.57420158 93.58782959 C8.56901541 96.19056699 8.56950682 98.79332204 8.57574654 101.39605713 C8.58119187 105.03265476 8.56084302 108.66820874 8.53344727 112.3046875 C8.53997314 113.38224304 8.54649902 114.45979858 8.55322266 115.57000732 C8.45973981 122.86174332 8.45973981 122.86174332 6.09165955 126.79321289 C3.83208372 128.77205399 2.96015545 129.28578641 0 129.1875 C-0.66 129.18878906 -1.32 129.19007813 -2 129.19140625 C-5.14079463 128.3019234 -6.07282102 127.32212601 -8 124.625 C-8.62596588 120.8674715 -8.55619834 117.12821461 -8.53344727 113.32641602 C-8.54206284 112.17318848 -8.55067841 111.01996094 -8.55955505 109.83178711 C-8.58228575 106.01393282 -8.57546241 102.19680834 -8.56640625 98.37890625 C-8.57031659 96.39829508 -8.57423704 94.41768352 -8.57970566 92.43707603 C-8.5967038 86.20983882 -8.59314026 79.98284665 -8.57641602 73.75561523 C-8.55949627 67.33542304 -8.57532645 60.91591084 -8.6076389 54.49579293 C-8.63434757 48.9797051 -8.64160741 43.46382878 -8.63312382 37.9476828 C-8.62819789 34.65484538 -8.63249377 31.36250717 -8.65091133 28.06970406 C-8.66830301 24.39695608 -8.65385647 20.72566738 -8.63110352 17.05297852 C-8.64279572 15.96450119 -8.65448792 14.87602386 -8.66653442 13.75456238 C-8.57368432 6.3994889 -8.57368432 6.3994889 -5.64805603 2.44981384 C-3 0.625 -3 0.625 0 0 Z " fill="#000000" transform="translate(160,201.375)"/>
<path d="M0 0 C2.65977478 1.30664062 2.65977478 1.30664062 5 4 C5.76743319 7.79139638 5.67204456 11.54954027 5.63110352 15.40625 C5.63825882 16.5708374 5.64541412 17.7354248 5.65278625 18.93530273 C5.66971547 22.79059903 5.65024401 26.6447395 5.62890625 30.5 C5.62973455 33.17514607 5.63213687 35.85025171 5.63621521 38.52539062 C5.64073553 44.13425036 5.62487066 49.74277653 5.59692383 55.3515625 C5.56487175 61.83419355 5.56488757 68.31622303 5.5821386 74.79889679 C5.5980079 81.03747595 5.59126769 87.27583476 5.57420158 93.5144043 C5.56901107 96.16820786 5.56951205 98.82202876 5.57574654 101.47583008 C5.58118477 105.18218494 5.56086586 108.88751215 5.53344727 112.59375 C5.53997314 113.69517334 5.54649902 114.79659668 5.55322266 115.93139648 C5.5404982 116.94081299 5.52777374 117.95022949 5.5146637 118.99023438 C5.51185678 119.86627319 5.50904985 120.74231201 5.50615788 121.64489746 C4.82493127 124.81457749 3.52246737 126.02244105 1 128 C-2.75349462 128.46918683 -5.03848453 128.53136381 -8.375 126.6875 C-11.12622262 123.83046112 -11.12717847 121.04194992 -11.14044189 117.26907349 C-11.14615204 116.29613342 -11.15186218 115.32319336 -11.15774536 114.32077026 C-11.15886322 113.25472565 -11.15998108 112.18868103 -11.16113281 111.09033203 C-11.16609772 109.96651123 -11.17106262 108.84269043 -11.17617798 107.68481445 C-11.19080887 103.95914096 -11.19760281 100.23351003 -11.203125 96.5078125 C-11.20887523 93.92332965 -11.21463298 91.33884683 -11.22039795 88.75436401 C-11.2295661 84.02548311 -11.23586565 79.29661928 -11.2388947 74.56773102 C-11.24337573 67.61062328 -11.26092734 60.65371199 -11.2898953 53.69666398 C-11.31412521 47.66799065 -11.3218394 41.63941021 -11.32357025 35.61068344 C-11.32660095 33.04700526 -11.33464345 30.48332799 -11.34775543 27.91968155 C-11.36477852 24.3357879 -11.36294464 20.75237452 -11.35644531 17.16845703 C-11.37026749 15.5754628 -11.37026749 15.5754628 -11.3843689 13.95028687 C-11.33273241 4.87701906 -11.33273241 4.87701906 -8 1 C-5.14675563 -0.42662219 -3.16545451 -0.31033868 0 0 Z " fill="#000000" transform="translate(257,202)"/>
<path d="M0 0 C0.82175217 -0.0087616 1.64350433 -0.01752319 2.49015808 -0.02655029 C5.19905834 -0.04850773 7.90631833 -0.03400528 10.61523438 -0.01708984 C12.50183423 -0.02045905 14.38843198 -0.02531253 16.27502441 -0.03158569 C20.22604062 -0.03895205 24.17649105 -0.02825922 28.12744141 -0.00488281 C33.18859134 0.02360491 38.2484156 0.00719966 43.30951691 -0.02274513 C47.20438604 -0.04082457 51.09894155 -0.03505713 54.99382019 -0.02210617 C56.85971738 -0.01877394 58.72564317 -0.02285282 60.59150696 -0.03450394 C63.20109317 -0.04722354 65.80854156 -0.02782195 68.41796875 0 C69.57144051 -0.01518173 69.57144051 -0.01518173 70.74821472 -0.03067017 C74.72620344 0.04778839 76.52815405 0.50415152 79.68811035 2.99990845 C81.70898438 5.64697266 81.70898438 5.64697266 82.33398438 8.64697266 C81.47887302 12.75150716 79.98456569 14.05989424 76.70898438 16.64697266 C73.75127622 17.14186664 71.37034292 17.33280379 68.41796875 17.29394531 C67.59621658 17.30270691 66.77446442 17.31146851 65.92781067 17.32049561 C63.21891041 17.34245304 60.51165042 17.3279506 57.80273438 17.31103516 C55.91613452 17.31440436 54.02953677 17.31925785 52.14294434 17.32553101 C48.19192813 17.33289736 44.2414777 17.32220454 40.29052734 17.29882812 C35.22937741 17.2703404 30.16955315 17.28674565 25.10845184 17.31669044 C21.21358271 17.33476988 17.3190272 17.32900245 13.42414856 17.31605148 C11.55825137 17.31271925 9.69232558 17.31679813 7.82646179 17.32844925 C5.21687558 17.34116885 2.60942719 17.32176726 0 17.29394531 C-1.15347176 17.30912704 -1.15347176 17.30912704 -2.33024597 17.32461548 C-6.30823469 17.24615693 -8.1101853 16.78979379 -11.2701416 14.29403687 C-13.29101562 11.64697266 -13.29101562 11.64697266 -13.91601562 8.64697266 C-12.34299602 1.09647854 -6.84622555 -0.09010846 0 0 Z " fill="#000000" transform="translate(267.291015625,393.35302734375)"/>
<path d="M0 0 C3.9375 0.4375 3.9375 0.4375 5.875 1.75 C7.88244099 4.93828862 8.07370827 7.71603451 8.11450195 11.38037109 C8.12733719 12.38506439 8.14017242 13.38975769 8.15339661 14.42489624 C8.16078354 15.50928986 8.16817047 16.59368347 8.17578125 17.7109375 C8.18788887 19.38478012 8.18788887 19.38478012 8.20024109 21.09243774 C8.21407617 23.45451302 8.2248009 25.81660824 8.23266602 28.17871094 C8.24989935 31.79139968 8.29379434 35.40317822 8.33789062 39.015625 C8.34801582 41.3098891 8.35653247 43.60416098 8.36328125 45.8984375 C8.38078934 46.97878265 8.39829742 48.05912781 8.41633606 49.17221069 C8.39468585 56.65394317 8.39468585 56.65394317 6.09448242 60.59619141 C3.29912872 62.98244581 1.60446595 63.4375 -2.0625 63.4375 C-6.62771739 61.30706522 -6.62771739 61.30706522 -8.0625 58.4375 C-8.17330468 56.73321028 -8.22167005 55.02468935 -8.23950195 53.31689453 C-8.25233719 52.24883575 -8.26517242 51.18077698 -8.27839661 50.08035278 C-8.28578354 48.92203949 -8.29317047 47.7637262 -8.30078125 46.5703125 C-8.308853 45.38404266 -8.31692474 44.19777283 -8.32524109 42.97555542 C-8.33908957 40.46207139 -8.34980829 37.94856849 -8.35766602 35.43505859 C-8.37489816 31.5852515 -8.41878137 27.73629861 -8.46289062 23.88671875 C-8.47301547 21.447923 -8.48153222 19.00911993 -8.48828125 16.5703125 C-8.50578934 15.41604767 -8.52329742 14.26178284 -8.54133606 13.07254028 C-8.53841049 11.99817719 -8.53548492 10.92381409 -8.5324707 9.81689453 C-8.53833694 8.87250519 -8.54420319 7.92811584 -8.55024719 6.95510864 C-7.65684238 2.34361377 -4.65621513 -0.13457269 0 0 Z " fill="#000000" transform="translate(209.0625,234.5625)"/>
<path d="M0 0 C2.6313433 2.02013419 3.84342644 3.21771851 4.50120544 6.50415039 C4.50137161 7.44250732 4.50153778 8.38086426 4.50170898 9.34765625 C4.51108994 10.41556396 4.52047089 11.48347168 4.53013611 12.58374023 C4.51890213 13.73173096 4.50766815 14.87972168 4.49609375 16.0625 C4.49754898 17.24593994 4.49900421 18.42937988 4.50050354 19.64868164 C4.49884388 22.15025291 4.48727529 24.65183432 4.46655273 27.15332031 C4.43760977 30.98546662 4.44594128 34.81622903 4.45898438 38.6484375 C4.45274674 41.07813173 4.44435561 43.50782159 4.43359375 45.9375 C4.43652939 47.08549072 4.43946503 48.23348145 4.44248962 49.41625977 C4.42346336 51.01812134 4.42346336 51.01812134 4.40405273 52.65234375 C4.39864975 53.59070068 4.39324677 54.52905762 4.38768005 55.49584961 C3.92668891 58.47353998 3.0737498 59.83859518 1 62 C-2.60050078 63.17407634 -4.27928713 63.32759676 -7.75 61.75 C-10 60 -10 60 -12 57 C-12.26069641 54.73672485 -12.26069641 54.73672485 -12.2746582 52.05712891 C-12.28419022 51.05243561 -12.29372223 50.04774231 -12.30354309 49.01260376 C-12.30263168 47.92821014 -12.30172028 46.84381653 -12.30078125 45.7265625 C-12.30506638 44.61066742 -12.3093515 43.49477234 -12.31376648 42.34506226 C-12.31951307 39.9829781 -12.32000764 37.62087624 -12.31567383 35.25878906 C-12.3125185 31.64617641 -12.33595383 28.03438608 -12.36132812 24.421875 C-12.36360154 22.1276052 -12.36430442 19.8333332 -12.36328125 17.5390625 C-12.372491 16.45871735 -12.38170074 15.37837219 -12.39118958 14.26528931 C-12.33305999 4.83025117 -12.33305999 4.83025117 -9 1 C-5.90826248 -0.54586876 -3.40570448 -0.29359521 0 0 Z " fill="#000000" transform="translate(398,235)"/>
<path d="M0 0 C3.5 0.5 3.5 0.5 5.875 2.3125 C8.30890833 5.58891506 8.62709307 8.20628933 8.64526367 12.16748047 C8.65164352 13.11211151 8.65802338 14.05674255 8.66459656 15.02999878 C8.66570938 16.04877106 8.6668222 17.06754333 8.66796875 18.1171875 C8.67129715 19.16649445 8.67462555 20.21580139 8.67805481 21.29690552 C8.68311969 23.51775677 8.68546327 25.73861564 8.68530273 27.95947266 C8.68748689 31.35462009 8.70564102 34.74944142 8.72460938 38.14453125 C8.72754385 40.30208222 8.72952828 42.45963474 8.73046875 44.6171875 C8.73765427 45.63191132 8.74483978 46.64663513 8.75224304 47.69210815 C8.74916641 48.64304352 8.74608978 49.59397888 8.74291992 50.57373047 C8.74434494 51.40629364 8.74576996 52.23885681 8.74723816 53.09664917 C8.33361783 57.11736653 7.37154342 59.77371382 4.25 62.375 C0.80998383 63.78227934 -0.96931836 63.57455528 -4.5 62.5 C-6.80043732 60.8011029 -7.43073168 59.93272323 -7.88768005 57.07814026 C-7.89308304 56.11979782 -7.89848602 55.16145538 -7.90405273 54.17407227 C-7.91673691 53.08606827 -7.92942108 51.99806427 -7.94248962 50.87709045 C-7.93955399 49.70206467 -7.93661835 48.52703888 -7.93359375 47.31640625 C-7.94145653 45.50582985 -7.94145653 45.50582985 -7.94947815 43.65867615 C-7.95590634 41.10408295 -7.95455112 38.54946017 -7.94604492 35.99487305 C-7.93754092 32.08133311 -7.9662787 28.16925479 -7.99804688 24.25585938 C-7.99965904 21.77604211 -7.99908107 19.29622224 -7.99609375 16.81640625 C-8.00732773 15.64340469 -8.01856171 14.47040314 -8.03013611 13.26185608 C-8.01606468 11.62512184 -8.01606468 11.62512184 -8.00170898 9.95532227 C-8.00154282 8.99618423 -8.00137665 8.0370462 -8.00120544 7.04884338 C-7.07013786 2.31396772 -4.61594123 0.65942018 0 0 Z " fill="#000000" transform="translate(301.5,234.5)"/>
</svg>
