<?xml version="1.0" encoding="UTF-8"?>
<svg version="1.1" xmlns="http://www.w3.org/2000/svg" width="512" height="512">
<path d="M0 0 C1.16485931 -0.0159874 2.32971863 -0.03197479 3.52987671 -0.04844666 C4.78926056 -0.05380936 6.04864441 -0.05917206 7.34619141 -0.06469727 C8.63965485 -0.07372574 9.93311829 -0.08275421 11.26577759 -0.09205627 C14.00452162 -0.10854167 16.74314349 -0.11624545 19.48193359 -0.11914062 C22.98498215 -0.12452259 26.48687646 -0.1621937 29.98959923 -0.20788479 C33.33762474 -0.24485116 36.68546873 -0.24617121 40.03369141 -0.25219727 C41.28902679 -0.27172958 42.54436218 -0.2912619 43.83773804 -0.31138611 C45.00890167 -0.30530838 46.18006531 -0.29923065 47.38671875 -0.29296875 C48.41469574 -0.2980394 49.44267273 -0.30311005 50.50180054 -0.30833435 C54.50771862 0.56461924 55.79316863 2.09047647 58.32275391 5.30639648 C59.19094813 8.42101634 59.36085509 11.5091035 59.53500366 14.72886658 C59.60360796 15.65502177 59.67221226 16.58117697 59.74289548 17.53539747 C59.88495925 19.48683609 60.0169117 21.43903436 60.13928938 23.39180636 C60.31331524 26.15645007 60.51450171 28.91739696 60.72734451 31.67929268 C61.15624456 37.29990094 61.5426035 42.92305873 61.92675781 48.546875 C62.0746047 50.68140222 62.22268828 52.81591306 62.37098694 54.95040894 C62.76796983 60.67428834 63.16159325 66.39839401 63.55447817 72.12255597 C63.96772306 78.1358606 64.38388673 84.14896333 64.7996521 90.16209412 C65.49573939 100.23570187 66.18972518 110.30945262 66.88232422 120.38330078 C67.68309696 132.03029832 68.48676891 143.67709297 69.29206336 155.32377869 C70.06868213 166.55612721 70.84373148 177.7885834 71.61790085 189.021101 C71.94681659 193.79337446 72.27620108 198.56561523 72.60594559 203.3378315 C72.99303458 208.94147006 73.37872465 214.54520321 73.76331902 220.14901352 C73.90474842 222.2066197 74.04664573 224.26419379 74.18903923 226.32173347 C74.3828839 229.12391354 74.57504135 231.92620427 74.76675415 234.72853088 C74.82375414 235.54689078 74.88075412 236.36525068 74.93948138 237.20840937 C75.169016 240.58685408 75.32275391 243.91811966 75.32275391 247.30639648 C76.11447998 247.29592285 76.90620605 247.28544922 77.72192383 247.2746582 C81.31800141 247.23301802 84.91402819 247.20704455 88.51025391 247.18139648 C89.75613281 247.16463867 91.00201172 247.14788086 92.28564453 247.13061523 C93.48769531 247.12416992 94.68974609 247.11772461 95.92822266 247.11108398 C97.58567505 247.09537354 97.58567505 247.09537354 99.27661133 247.0793457 C102.4196804 247.31362111 104.5424859 247.83802455 107.32275391 249.30639648 C109.83754056 253.07857647 109.60739096 256.05395912 109.59017944 260.4228363 C109.59471056 261.25970555 109.59924167 262.09657479 109.60391009 262.95880371 C109.61660719 265.77320985 109.61493031 268.58742379 109.61328125 271.40185547 C109.61926314 273.4154892 109.6260679 275.42912063 109.63363647 277.44274902 C109.65133707 282.91995021 109.65599353 288.39708895 109.65726805 293.87431598 C109.65916458 298.44212955 109.66651918 303.00992849 109.67361224 307.57773644 C109.68990882 318.35131097 109.69477999 329.12485206 109.69335938 339.8984375 C109.69215724 351.02351064 109.71327057 362.14838999 109.7448467 373.27341408 C109.77096857 382.81571794 109.78172841 392.35795834 109.78044856 401.9002977 C109.77993777 407.60360365 109.78568548 413.30673742 109.80680466 419.01000786 C109.82611849 424.37229723 109.82635859 429.73424895 109.81177139 435.09654999 C109.80967373 437.06703495 109.81444077 439.03754066 109.82649231 441.00798988 C109.84185563 443.69338556 109.83269628 446.37760395 109.81723022 449.06297302 C109.82751735 449.8469197 109.83780448 450.63086637 109.84840333 451.43856901 C109.80744973 454.64540869 109.65150644 456.8273787 107.81365359 459.50527197 C104.31675119 462.03381886 101.12538105 461.85858326 96.97058105 461.80976105 C96.11622373 461.81557481 95.2618664 461.82138857 94.38161945 461.82737851 C91.49908526 461.8420562 88.61739224 461.82805714 85.73486328 461.81433105 C83.655358 461.81893689 81.57585596 461.82528767 79.49636078 461.83324003 C73.76663947 461.84999996 68.03718328 461.84165674 62.30746078 461.82929516 C56.13423581 461.82027419 49.96105759 461.83419968 43.7878418 461.84521484 C32.38836706 461.86200535 20.98900088 461.8605055 9.5895288 461.84956897 C-0.94056738 461.83951583 -11.47063243 461.83687569 -22.00073242 461.84165955 C-22.69859574 461.84196509 -23.39645906 461.84227063 -24.11546975 461.84258543 C-26.94816099 461.84383073 -29.78085222 461.84510433 -32.61354342 461.84642448 C-59.1988255 461.85866681 -85.78405346 461.84755663 -112.36932719 461.82603689 C-136.00064164 461.80705376 -159.63186989 461.80875224 -183.26318359 461.82788086 C-209.79912388 461.84928874 -236.33501633 461.85779867 -262.87096405 461.8454318 C-265.69856261 461.84414889 -268.52616118 461.84289753 -271.35375977 461.84165955 C-272.05001191 461.84134324 -272.74626406 461.84102693 -273.46361476 461.84070103 C-283.98837021 461.83614673 -294.51309113 461.84148043 -305.0378418 461.85157776 C-317.00221919 461.86299886 -328.96649473 461.85980338 -340.93086815 461.83845478 C-347.03965411 461.8279152 -353.14826475 461.82387201 -359.25704956 461.83705139 C-364.84303244 461.84892092 -370.42867652 461.84250287 -376.01462841 461.82114118 C-378.04148109 461.81665196 -380.06836206 461.81899291 -382.09519672 461.82864434 C-384.8389026 461.84071288 -387.58143014 461.82843109 -390.32507324 461.80976105 C-391.52048123 461.82380804 -391.52048123 461.82380804 -392.74003887 461.83813882 C-396.2350121 461.79022178 -398.29519519 461.58143385 -401.16744745 459.51370758 C-403.48590335 456.12414736 -403.23527523 452.69761981 -403.19863892 448.73475647 C-403.20629001 447.86098639 -403.2139411 446.98721632 -403.22182405 446.08696836 C-403.24249384 443.15343861 -403.23449872 440.22069107 -403.2265625 437.28710938 C-403.23525498 435.18627699 -403.24562068 433.08545096 -403.25753784 430.9846344 C-403.28435926 425.27390265 -403.28547071 419.56343527 -403.28041124 413.85265279 C-403.27827468 409.08852735 -403.28803115 404.32445572 -403.29762208 399.56034178 C-403.31982661 388.32306467 -403.32067914 377.08592126 -403.30859375 365.84863281 C-403.29650963 354.24800328 -403.32114415 342.64785863 -403.36373389 331.04731184 C-403.39893543 321.09391305 -403.41097351 311.1406688 -403.4044584 301.18721002 C-403.40082758 295.23957705 -403.40615561 289.29228996 -403.43388748 283.34471321 C-403.45898614 277.75244245 -403.45521247 272.16092901 -403.4290657 266.56867027 C-403.42432227 264.51475395 -403.42984623 262.46078481 -403.44631195 260.40692902 C-403.46715448 257.60540712 -403.45112928 254.80644845 -403.4256897 252.00502014 C-403.44043827 251.18964989 -403.45518684 250.37427964 -403.47038233 249.5342012 C-403.36749438 244.15936708 -403.36749438 244.15936708 -401.40318942 241.73198783 C-397.96288337 238.80018095 -393.96764508 236.53625519 -390.07568359 234.25952148 C-389.4500502 233.89112656 -388.82441681 233.52273163 -388.17982483 233.14317322 C-386.83786105 232.35359042 -385.49450282 231.56637357 -384.14987183 230.78134155 C-380.54687143 228.67730674 -376.95467162 226.55494647 -373.36083984 224.43530273 C-372.63000687 224.00490189 -371.89917389 223.57450104 -371.14619446 223.13105774 C-364.09984681 218.97728387 -357.10155078 214.74683064 -350.11474609 210.49389648 C-348.9693634 209.79818646 -347.82393725 209.10254796 -346.6784668 208.40698242 C-341.10379191 205.01737417 -335.542318 201.60801618 -329.99755859 198.16967773 C-328.94125244 197.51781494 -327.88494629 196.86595215 -326.79663086 196.19433594 C-324.81656667 194.97144348 -322.84022944 193.74248727 -320.8684082 192.50634766 C-319.99192627 191.96598877 -319.11544434 191.42562988 -318.21240234 190.86889648 C-317.4532251 190.39581055 -316.69404785 189.92272461 -315.91186523 189.43530273 C-311.77001842 187.34288498 -309.4400101 187.06076062 -304.98974609 188.49389648 C-301.52449843 190.3899754 -300.97337074 190.79546892 -299.67724609 194.30639648 C-299.39877319 196.68560791 -299.39877319 196.68560791 -299.35839844 199.3503418 C-299.33852875 200.35107727 -299.31865906 201.35181274 -299.29818726 202.38287354 C-299.28663605 203.45591736 -299.27508484 204.52896118 -299.26318359 205.63452148 C-299.24381744 206.73866394 -299.22445129 207.8428064 -299.20449829 208.98040771 C-299.14473718 212.50565882 -299.09833046 216.03094263 -299.05224609 219.55639648 C-299.01406317 221.94703569 -298.97501126 224.3376612 -298.93505859 226.72827148 C-298.83903843 232.58752475 -298.75398061 238.44686064 -298.67724609 244.30639648 C-291.29805601 238.52844919 -283.92384349 232.75050088 -276.67724609 226.80639648 C-271.15739066 222.29940772 -265.5918467 217.85968402 -259.97290039 213.47705078 C-256.12909458 210.47058517 -252.33618586 207.40766582 -248.5612793 204.31518555 C-228.56200449 187.93864325 -228.56200449 187.93864325 -222.67724609 187.30639648 C-218.643445 188.3628682 -216.841445 189.78252771 -214.67724609 193.30639648 C-214.27851868 195.76153564 -214.27851868 195.76153564 -214.24487305 198.53393555 C-214.22507889 199.57471252 -214.20528473 200.6154895 -214.18489075 201.68780518 C-214.17530586 203.36299225 -214.17530586 203.36299225 -214.16552734 205.07202148 C-214.14757614 206.22055603 -214.12962494 207.36909058 -214.11112976 208.5524292 C-214.05695268 212.22038096 -214.02310641 215.88820203 -213.98974609 219.55639648 C-213.95657966 222.04339387 -213.92209064 224.53037399 -213.88623047 227.01733398 C-213.80122184 233.11357097 -213.73290313 239.20982471 -213.67724609 245.30639648 C-212.81784424 244.57469238 -211.95844238 243.84298828 -211.07299805 243.08911133 C-205.40766565 238.27437744 -199.74883368 233.47853477 -193.86474609 228.93139648 C-188.74870683 224.9535453 -183.69692474 220.90512724 -178.67724609 216.80639648 C-172.55189918 211.80965448 -166.37857037 206.88239676 -160.14208984 202.02514648 C-157.69410192 200.1154779 -155.27553147 198.17385254 -152.86865234 196.21264648 C-152.24039551 195.70556152 -151.61213867 195.19847656 -150.96484375 194.67602539 C-149.76460708 193.70639635 -148.56988835 192.72988152 -147.38183594 191.74536133 C-144.21557451 189.20277168 -141.77912476 187.57560441 -137.67724609 187.30639648 C-134.25682959 188.28365834 -131.86147 189.4669054 -129.67724609 192.30639648 C-128.73941943 195.2889521 -128.52932562 198.05065101 -128.47192383 201.16674805 C-128.45197861 202.12744202 -128.43203339 203.08813599 -128.41148376 204.07794189 C-128.38641502 205.62188629 -128.38641502 205.62188629 -128.36083984 207.19702148 C-128.3296682 208.78664703 -128.3296682 208.78664703 -128.29786682 210.40838623 C-128.23252424 213.79099087 -128.17355729 217.1736726 -128.11474609 220.55639648 C-128.07154635 222.85067527 -128.02793159 225.14494627 -127.98388672 227.43920898 C-127.87685849 233.0615235 -127.77506371 238.68391458 -127.67724609 244.30639648 C-127.22921631 243.94139038 -126.78118652 243.57638428 -126.31958008 243.20031738 C-124.25180589 241.51630739 -122.18328042 239.83322265 -120.11474609 238.15014648 C-119.41027344 237.57619141 -118.70580078 237.00223633 -117.97998047 236.41088867 C-113.57956568 232.83174946 -109.14958374 229.29519533 -104.67724609 225.80639648 C-99.63047816 221.86224652 -94.63993804 217.85586274 -89.67724609 213.80639648 C-57.87915728 187.88791095 -57.87915728 187.88791095 -52.67724609 187.30639648 C-46.28639453 189.39995131 -46.28639453 189.39995131 -44.48049927 192.08721924 C-43.52359038 194.73090681 -43.43680728 196.8142454 -43.45019531 199.62573242 C-43.45034637 200.68653015 -43.45049744 201.74732788 -43.45065308 202.840271 C-43.46097565 203.97893616 -43.47129822 205.11760132 -43.48193359 206.29077148 C-43.48617844 208.04686737 -43.48617844 208.04686737 -43.49050903 209.83843994 C-43.50170454 213.57786273 -43.52680834 217.31704607 -43.55224609 221.05639648 C-43.56227669 223.59154928 -43.5714024 226.12670582 -43.57958984 228.66186523 C-43.60164187 234.87680125 -43.63616774 241.09155827 -43.67724609 247.30639648 C-38.06724609 247.30639648 -32.45724609 247.30639648 -26.67724609 247.30639648 C-26.70531845 245.43675232 -26.73339081 243.56710815 -26.76231384 241.64080811 C-26.75711244 231.71520605 -26.0158108 221.85252285 -25.31616211 211.95581055 C-25.1695944 209.83209503 -25.0234473 207.70835045 -24.87768555 205.58457947 C-24.48323772 199.85527179 -24.08283981 194.12639427 -23.68124127 188.39758396 C-23.26067856 182.38472982 -22.84538167 176.37151182 -22.4294281 170.3583374 C-21.7306685 160.26771844 -21.02831018 150.17735532 -20.32348633 140.0871582 C-19.41998695 127.15248603 -18.52237708 114.21741224 -17.6266489 101.28219986 C-16.85461803 90.13388639 -16.07995512 78.98575603 -15.30483508 67.83765697 C-15.05661797 64.26622108 -14.80874598 60.69476135 -14.56091499 57.12329865 C-14.1709156 51.50558592 -13.77927255 45.88798999 -13.38637543 40.2704792 C-13.24275626 38.21385586 -13.09964285 36.15719713 -12.95708275 34.10050011 C-12.76179323 31.28452992 -12.56461206 28.46869818 -12.36695862 25.65289307 C-12.31150724 24.84723538 -12.25605585 24.04157769 -12.19892412 23.21150613 C-12.03611446 20.9088014 -11.85932503 18.60765304 -11.67724609 16.30639648 C-11.61289049 15.42802423 -11.54853489 14.54965198 -11.48222911 13.64466238 C-11.4086094 12.76276314 -11.33498968 11.8808639 -11.25913906 10.97224045 C-11.16406037 9.77616861 -11.16406037 9.77616861 -11.06706089 8.55593371 C-10.64095002 6.09693963 -10.00317468 4.41817681 -8.67724609 2.30639648 C-5.26878803 0.03409111 -4.00732649 0.04154106 0 0 Z M6.32275391 18.30639648 C4.36212823 46.39209669 2.40590435 74.47809958 0.45548248 102.56451035 C-0.45028148 115.60607149 -1.35758878 128.6475218 -2.26855469 141.6887207 C-3.0627277 153.05799346 -3.85397919 164.42746517 -4.64175177 175.79718328 C-5.05880802 181.81497997 -5.4773071 187.83266835 -5.89930725 193.85012054 C-6.29687413 199.5198321 -6.69051898 205.18980268 -7.08122444 210.85999107 C-7.2249028 212.93525053 -7.36998439 215.01041342 -7.51661491 217.08546638 C-7.71752911 219.93178661 -7.91325809 222.7784204 -8.10778809 225.62518311 C-8.16615231 226.43456479 -8.22451653 227.24394647 -8.28464937 228.07785487 C-8.71705772 234.53108806 -8.67724609 240.79175519 -8.67724609 247.30639648 C13.10275391 247.30639648 34.88275391 247.30639648 57.32275391 247.30639648 C55.53385433 220.99208094 53.74342449 194.67787094 51.95025826 168.36384583 C51.11754763 156.14342814 50.28550396 143.92296575 49.45507812 131.70239258 C48.73055143 121.0402603 48.00472473 110.37821742 47.27739227 99.71627617 C46.89298439 94.08060749 46.50918992 88.44489867 46.12695694 82.80908203 C43.94018869 50.54139395 43.94018869 50.54139395 41.32275391 18.30639648 C29.77275391 18.30639648 18.22275391 18.30639648 6.32275391 18.30639648 Z M-324.87255859 216.35717773 C-325.96624756 217.0273291 -327.05993652 217.69748047 -328.18676758 218.38793945 C-329.06907547 218.93245758 -329.06907547 218.93245758 -329.96920776 219.48797607 C-333.10945946 221.42540132 -336.25878233 223.34796738 -339.40771484 225.27124023 C-340.07096268 225.67671082 -340.73421051 226.0821814 -341.41755676 226.49993896 C-349.27565548 231.29586885 -357.19368954 235.99044338 -365.11474609 240.68139648 C-365.80932922 241.09289948 -366.50391235 241.50440247 -367.21954346 241.92837524 C-372.45382212 245.02927588 -372.45382212 245.02927588 -374.94709778 246.50392151 C-376.52444003 247.43702218 -378.10087158 248.37166185 -379.67724609 249.30639648 C-380.55297366 249.68183499 -381.42870123 250.0572735 -382.330966 250.44408894 C-385.03201648 252.1684718 -385.03201648 252.1684718 -385.29248524 255.65845776 C-385.31353186 257.07824304 -385.3066777 258.49859664 -385.27851868 259.91825867 C-385.28279877 260.69889175 -385.28707886 261.47952484 -385.29148865 262.28381348 C-385.29978672 264.91650877 -385.27211758 267.5476251 -385.24487305 270.18017578 C-385.24334191 272.0928915 -385.24400791 274.00561004 -385.24669933 275.91832447 C-385.24783027 281.05040565 -385.21880764 286.18190643 -385.18364716 291.3138504 C-385.15521651 296.12571587 -385.15383403 300.93743867 -385.15026855 305.74938965 C-385.12400993 319.8309691 -385.05420439 333.91244008 -384.98974609 347.99389648 C-384.88662109 379.44702148 -384.78349609 410.90014648 -384.67724609 443.30639648 C-300.52724609 443.30639648 -216.37724609 443.30639648 -129.67724609 443.30639648 C-129.34724609 405.68639648 -129.01724609 368.06639648 -128.67724609 329.30639648 C-124.40622694 325.03537733 -122.65749448 325.17649128 -116.72070312 325.14526367 C-116.00507202 325.14029877 -115.28944092 325.13533386 -114.55212402 325.13021851 C-112.17975917 325.11558858 -109.80746118 325.10879354 -107.43505859 325.10327148 C-105.78840126 325.09752072 -104.14174395 325.09176298 -102.49508667 325.08599854 C-99.04001554 325.07548619 -95.58496769 325.06964506 -92.12988281 325.06616211 C-87.70223824 325.06067682 -83.27490111 325.03664922 -78.84735298 325.00819016 C-75.44500835 324.989568 -72.04273782 324.98435841 -68.64034653 324.98282623 C-67.00805861 324.97979821 -65.37577205 324.97176463 -63.74353409 324.95864105 C-61.45964408 324.94158894 -59.17650594 324.94345838 -56.89257812 324.94995117 C-55.59289093 324.94630554 -54.29320374 324.94265991 -52.95413208 324.93890381 C-49.47688222 325.32886668 -48.08681575 325.81656411 -45.67724609 328.30639648 C-44.7269149 331.15739008 -44.54222444 332.9598726 -44.51902771 335.91911316 C-44.50925368 336.86365703 -44.49947966 337.80820089 -44.48940945 338.7813673 C-44.48363919 339.81982957 -44.47786894 340.85829184 -44.47192383 341.92822266 C-44.45687475 343.59401226 -44.45687475 343.59401226 -44.44152164 345.29345417 C-44.41008895 348.89540316 -44.38534573 352.49736314 -44.36083984 356.09936523 C-44.34244081 358.3202755 -44.32360437 360.54118219 -44.30432129 362.76208496 C-44.2358219 371.00597974 -44.17580227 379.24994322 -44.11474609 387.49389648 C-43.97037109 405.91202148 -43.82599609 424.33014648 -43.67724609 443.30639648 C0.87275391 443.30639648 45.42275391 443.30639648 91.32275391 443.30639648 C91.32275391 384.56639648 91.32275391 325.82639648 91.32275391 265.30639648 C42.75088518 265.017014 42.75088518 265.017014 -5.82104492 264.73828125 C-15.20202637 264.67932129 -15.20202637 264.67932129 -19.58964539 264.65049744 C-22.66283772 264.63064767 -25.73603226 264.61356345 -28.80924988 264.59812927 C-32.72553876 264.57837142 -36.64177203 264.55394475 -40.55801141 264.5260905 C-41.99764132 264.51665474 -43.43728326 264.50887987 -44.87693179 264.50292695 C-46.81725571 264.49466868 -48.75754832 264.47982507 -50.6978302 264.46461487 C-51.78646771 264.45816232 -52.87510523 264.45170977 -53.99673176 264.44506168 C-56.67724609 264.30639648 -56.67724609 264.30639648 -59.67724609 263.30639648 C-60.59781324 260.54469504 -60.82524758 258.78460793 -60.88256836 255.92675781 C-60.90251358 255.04607132 -60.9224588 254.16538483 -60.94300842 253.25801086 C-60.96807716 251.83756721 -60.96807716 251.83756721 -60.99365234 250.38842773 C-61.01443344 249.4160466 -61.03521454 248.44366547 -61.05662537 247.44181824 C-61.12203357 244.33424984 -61.18096538 241.22659663 -61.23974609 238.11889648 C-61.28293961 236.01276791 -61.32655417 233.90664792 -61.37060547 231.80053711 C-61.47770608 226.63591058 -61.57899828 221.47119871 -61.67724609 216.30639648 C-64.39001856 217.6288283 -66.67432897 218.96658709 -69.00537109 220.88842773 C-69.6320166 221.40163574 -70.25866211 221.91484375 -70.90429688 222.44360352 C-71.57187012 222.9964502 -72.23944336 223.54929687 -72.92724609 224.11889648 C-74.3673009 225.29994625 -75.8074065 226.4809341 -77.24755859 227.66186523 C-77.98264648 228.26691895 -78.71773438 228.87197266 -79.47509766 229.49536133 C-82.90822969 232.31875084 -86.3538272 235.12671056 -89.80224609 237.93139648 C-90.79853027 238.74217651 -90.79853027 238.74217651 -91.81494141 239.56933594 C-96.62595636 243.47548917 -101.48455142 247.31638915 -106.37109375 251.12744141 C-111.70618726 255.29952409 -116.95128533 259.57979581 -122.17333984 263.89233398 C-133.1448685 272.88943621 -133.1448685 272.88943621 -139.67724609 273.30639648 C-142.55224609 272.86889648 -142.55224609 272.86889648 -144.67724609 272.30639648 C-145.68409997 269.28583487 -145.83097295 267.17085034 -145.88256836 264.00878906 C-145.90251358 262.92789505 -145.9224588 261.84700104 -145.94300842 260.73335266 C-145.96807716 258.98480232 -145.96807716 258.98480232 -145.99365234 257.20092773 C-146.01443344 256.00658615 -146.03521454 254.81224457 -146.05662537 253.58171082 C-146.12208885 249.76083206 -146.18099119 245.93988373 -146.23974609 242.11889648 C-146.28293434 239.53099862 -146.32654873 236.94310783 -146.37060547 234.35522461 C-146.47776701 228.00568909 -146.5795395 221.65608415 -146.67724609 215.30639648 C-147.93226201 216.24216851 -149.18650318 217.17897963 -150.44042969 218.11621094 C-151.13897064 218.63778275 -151.8375116 219.15935455 -152.55722046 219.69673157 C-155.87274788 222.21410121 -159.08562495 224.85213334 -162.30224609 227.49389648 C-167.38807604 231.64985453 -172.49945324 235.76557367 -177.67724609 239.80639648 C-182.72583 243.74821428 -187.71438344 247.75722879 -192.67724609 251.80639648 C-197.84704039 256.01611292 -203.02156143 260.21922418 -208.23974609 264.36889648 C-208.78695312 264.80975586 -209.33416016 265.25061523 -209.89794922 265.70483398 C-219.56310853 273.34705298 -219.56310853 273.34705298 -224.92724609 273.24389648 C-228.53453807 272.01413786 -229.99480855 270.67127158 -231.67724609 267.30639648 C-231.79597183 265.67304457 -231.85433702 264.03512295 -231.88256836 262.39770508 C-231.90251358 261.37679779 -231.9224588 260.3558905 -231.94300842 259.30404663 C-231.96807716 257.64618637 -231.96807716 257.64618637 -231.99365234 255.95483398 C-232.01443344 254.82566559 -232.03521454 253.69649719 -232.05662537 252.53311157 C-232.12215944 248.91593677 -232.18102383 245.29868768 -232.23974609 241.68139648 C-232.28292764 239.23347205 -232.3265418 236.7855552 -232.37060547 234.33764648 C-232.47784476 228.32730899 -232.57960396 222.31689713 -232.67724609 216.30639648 C-235.98178473 218.47579935 -239.22108849 220.63734264 -242.27099609 223.15405273 C-242.90134766 223.6709668 -243.53169922 224.18788086 -244.18115234 224.72045898 C-244.83986328 225.26444336 -245.49857422 225.80842773 -246.17724609 226.36889648 C-251.30283163 230.56942238 -256.45148296 234.73111494 -261.67724609 238.80639648 C-266.72597974 242.74801496 -271.71444256 246.75716752 -276.67724609 250.80639648 C-304.25300818 273.26665488 -304.25300818 273.26665488 -310.48974609 273.36889648 C-314.09113339 272.16843405 -314.80956194 271.5099559 -316.67724609 268.30639648 C-317.07597351 265.73736572 -317.07597351 265.73736572 -317.10961914 262.8034668 C-317.1294133 261.70262756 -317.14920746 260.60178833 -317.16960144 259.46759033 C-317.17599136 258.28517761 -317.18238129 257.10276489 -317.18896484 255.88452148 C-317.20691605 254.6693988 -317.22486725 253.45427612 -317.24336243 252.20233154 C-317.29755468 248.32038851 -317.3313908 244.43856908 -317.36474609 240.55639648 C-317.39791117 237.92486884 -317.43240006 235.29335752 -317.46826172 232.66186523 C-317.55328649 226.21015313 -317.6215988 219.75842522 -317.67724609 213.30639648 C-320.65851804 213.30639648 -322.34419289 214.79813926 -324.87255859 216.35717773 Z M-111.67724609 342.30639648 C-111.67724609 375.63639648 -111.67724609 408.96639648 -111.67724609 443.30639648 C-95.17724609 443.30639648 -78.67724609 443.30639648 -61.67724609 443.30639648 C-61.67724609 409.97639648 -61.67724609 376.64639648 -61.67724609 342.30639648 C-78.17724609 342.30639648 -94.67724609 342.30639648 -111.67724609 342.30639648 Z " fill="#000000" transform="translate(402.67724609375,50.693603515625)"/>
<path d="M0 0 C7.24302184 2.39514872 12.39962499 6.82308387 17.7734375 12.109375 C20.53495179 14.52575035 20.53495179 14.52575035 24 15 C26.42181941 13.29777351 26.42181941 13.29777351 28.75 10.875 C35.91824941 4.07733955 42.11856112 -0.47266101 52.2421875 -0.33984375 C60.70660389 0.70322173 66.46461264 5.95869013 72 12 C73.95376381 14.01385848 73.95376381 14.01385848 76 15 C80.51713972 14.67039113 82.2514661 13.07713785 85.1875 9.75 C91.34514627 3.37896994 97.12760894 -0.20034086 106.125 -0.5625 C113.01724097 -0.24398822 117.49921923 1.79693122 122.625 6.3125 C123.92386996 7.78227391 125.20983801 9.26560318 126.42578125 10.8046875 C129.70328716 14.88674913 131.79804115 16.61281097 137 18 C139.52846091 19.74376614 139.95170971 20.84478121 140.875 23.8125 C141.03387238 27.86374567 140.38467598 29.72107052 138 33 C133.22986617 35.24476886 129.73923934 35.18446496 124.84765625 33.6953125 C117.44064843 30.9078973 112.85290832 24.96214451 108 19 C103.41492745 19.48049606 101.42626896 21.11558912 98.1875 24.3125 C94.0227615 28.19383913 90.35269537 31.05069165 85 33 C84.30390625 33.26941406 83.6078125 33.53882813 82.890625 33.81640625 C77.296307 35.55223187 73.14797672 34.74783596 67.78125 32.546875 C63.71118541 30.28318739 60.51040735 27.36354458 57.19140625 24.12109375 C54.3248435 21.2502491 54.3248435 21.2502491 51 19 C47.0145386 19.90831446 44.96177793 21.80692005 42.3125 24.8125 C37.31349635 30.00995181 31.78283691 32.73905436 25 35 C14.96632873 35 8.32152981 29.77805442 1.1640625 23.3515625 C-2.45992973 20.12112599 -5.79416519 17.91399865 -10.30078125 16.0546875 C-12.52259612 14.67562999 -13.11637177 13.43790763 -14 11 C-13.86598253 7.24751088 -13.47542107 4.77255924 -11.5 1.5625 C-7.64437395 -0.84726628 -4.41986182 -0.77711856 0 0 Z " fill="#000000" transform="translate(295,0)"/>
<path d="M0 0 C1.31328781 -0.0049926 1.31328781 -0.0049926 2.65310669 -0.01008606 C4.50750197 -0.01515395 6.36190639 -0.01749443 8.21630859 -0.01733398 C11.0519112 -0.01951708 13.8871227 -0.03766478 16.72265625 -0.05664062 C18.52343617 -0.05957525 20.32421794 -0.06155958 22.125 -0.0625 C22.97303192 -0.06968552 23.82106384 -0.07687103 24.6947937 -0.08427429 C25.88590256 -0.07965935 25.88590256 -0.07965935 27.10107422 -0.07495117 C27.79675507 -0.07637619 28.49243591 -0.07780121 29.209198 -0.07926941 C31.60554093 0.21903535 33.15183042 0.88628406 35.1953125 2.16796875 C37.46761787 5.57642681 37.46016792 6.83788835 37.50170898 10.84521484 C37.51769638 12.01007416 37.53368378 13.17493347 37.55015564 14.37509155 C37.55551834 15.6344754 37.56088104 16.89385925 37.56640625 18.19140625 C37.57994896 20.13160141 37.57994896 20.13160141 37.59376526 22.11099243 C37.61025065 24.84973647 37.61795443 27.58835833 37.62084961 30.32714844 C37.62623157 33.83019699 37.66390269 37.33209131 37.70959377 40.83481407 C37.74656014 44.18283958 37.74788019 47.53068358 37.75390625 50.87890625 C37.77343857 52.13424164 37.79297089 53.38957703 37.81309509 54.68295288 C37.76892564 63.1942998 37.76892564 63.1942998 35.25634766 67.45922852 C30.98075056 69.84596516 27.48654642 69.86956168 22.66015625 69.796875 C21.28664757 69.80049294 21.28664757 69.80049294 19.88539124 69.80418396 C17.9547186 69.80320674 16.02401752 69.78984291 14.09350586 69.76489258 C11.13884403 69.73053888 8.18716664 69.74425056 5.23242188 69.76367188 C3.35415394 69.75677439 1.47589372 69.74710289 -0.40234375 69.734375 C-1.28471207 69.73933487 -2.16708038 69.74429474 -3.07618713 69.74940491 C-9.19141713 69.63193865 -9.19141713 69.63193865 -12.32983398 67.25756836 C-14.72223193 63.86797491 -14.94079072 61.9136768 -14.98168945 57.7878418 C-14.99452469 56.66294846 -15.00735992 55.53805511 -15.02058411 54.3790741 C-15.02797104 53.15827652 -15.03535797 51.93747894 -15.04296875 50.6796875 C-15.0510405 49.4292012 -15.05911224 48.1787149 -15.06742859 46.89033508 C-15.08127945 44.23975917 -15.09229286 41.58930806 -15.09985352 38.9387207 C-15.11090962 35.54906126 -15.1452997 32.16005983 -15.18502522 28.77063274 C-15.21751056 25.53204965 -15.22197213 22.2934087 -15.23046875 19.0546875 C-15.24797684 17.83996262 -15.26548492 16.62523773 -15.28352356 15.373703 C-15.28059799 14.23935318 -15.27767242 13.10500336 -15.2746582 11.9362793 C-15.28052444 10.94081589 -15.28639069 9.94535248 -15.29243469 8.91972351 C-14.66944204 5.40494573 -13.24004023 3.72691644 -10.8046875 1.16796875 C-7.45528784 -0.50673108 -3.68339603 0.00481054 0 0 Z M3.1953125 18.16796875 C3.1953125 29.05796875 3.1953125 39.94796875 3.1953125 51.16796875 C8.4753125 51.16796875 13.7553125 51.16796875 19.1953125 51.16796875 C19.1953125 40.27796875 19.1953125 29.38796875 19.1953125 18.16796875 C13.9153125 18.16796875 8.6353125 18.16796875 3.1953125 18.16796875 Z " fill="#000000" transform="translate(133.8046875,391.83203125)"/>
<path d="M0 0 C0.85095749 -0.00570007 1.70191498 -0.01140015 2.57865906 -0.01727295 C4.38177241 -0.02672798 6.18490308 -0.03325892 7.98803711 -0.03710938 C10.74038073 -0.04679987 13.49197283 -0.07781175 16.24414062 -0.109375 C17.99608932 -0.11590663 19.74804335 -0.12115647 21.5 -0.125 C22.73149529 -0.1435202 22.73149529 -0.1435202 23.98786926 -0.16241455 C28.60665841 -0.14450516 31.7586484 0.11318287 35.44921875 3.203125 C37.48196929 6.42210422 37.70184781 8.96414241 37.70800781 12.734375 C37.71431213 13.84232422 37.72061646 14.95027344 37.72711182 16.09179688 C37.72306335 17.28353516 37.71901489 18.47527344 37.71484375 19.703125 C37.71771393 21.54487305 37.71771393 21.54487305 37.72064209 23.42382812 C37.72200295 26.01953334 37.71831341 28.61524537 37.70996094 31.2109375 C37.69926038 35.18765528 37.70985993 39.16392129 37.72265625 43.140625 C37.72133464 45.66145933 37.71877221 48.18229338 37.71484375 50.703125 C37.71889221 51.89486328 37.72294067 53.08660156 37.72711182 54.31445312 C37.7208075 55.42240234 37.71450317 56.53035156 37.70800781 57.671875 C37.70641663 58.64576172 37.70482544 59.61964844 37.70318604 60.62304688 C37.43516447 63.34590382 36.94769315 64.92687438 35.44921875 67.203125 C32.40761493 69.23086088 31.75912111 69.45919123 28.33251953 69.50952148 C27.508013 69.52550888 26.68350647 69.54149628 25.83401489 69.55796814 C24.50272049 69.56601219 24.50272049 69.56601219 23.14453125 69.57421875 C22.22840057 69.58324722 21.3122699 69.5922757 20.36837769 69.60157776 C18.43002595 69.61608585 16.49162517 69.62496838 14.55322266 69.62866211 C11.59193105 69.64055387 8.63272644 69.68972892 5.671875 69.74023438 C3.78777058 69.74969927 1.90365337 69.75693399 0.01953125 69.76171875 C-0.86394989 69.78125107 -1.74743103 69.80078339 -2.65768433 69.82090759 C-6.67511179 69.79151843 -9.05494704 69.47975371 -12.60961914 67.49658203 C-15.72343668 62.21354863 -15.24342612 56.96914145 -15.1796875 50.94921875 C-15.18209946 49.65621353 -15.18451141 48.36320831 -15.18699646 47.03102112 C-15.18984902 44.29973773 -15.17520697 41.56927689 -15.14770508 38.83813477 C-15.11358703 35.34179914 -15.11965558 31.84693026 -15.13836765 28.35052395 C-15.15149 25.00827677 -15.13322182 21.66645568 -15.1171875 18.32421875 C-15.12214737 17.06999619 -15.12710724 15.81577362 -15.13221741 14.52354431 C-15.11638107 13.35876053 -15.10054474 12.19397675 -15.08422852 10.99389648 C-15.07802994 9.96973129 -15.07183136 8.9455661 -15.06544495 7.8903656 C-14.41817908 4.51076233 -13.18463845 3.3445234 -10.55078125 1.203125 C-7.26345757 -0.44053684 -3.61423905 0.01857168 0 0 Z M3.44921875 18.203125 C3.44921875 29.093125 3.44921875 39.983125 3.44921875 51.203125 C8.72921875 51.203125 14.00921875 51.203125 19.44921875 51.203125 C19.44921875 40.313125 19.44921875 29.423125 19.44921875 18.203125 C14.16921875 18.203125 8.88921875 18.203125 3.44921875 18.203125 Z " fill="#000000" transform="translate(65.55078125,391.796875)"/>
<path d="M0 0 C0.84812759 -0.00428513 1.69625519 -0.00857025 2.57008362 -0.01298523 C4.36124785 -0.0187201 6.15243537 -0.019235 7.94360352 -0.01489258 C10.67830291 -0.01173388 13.41191876 -0.0351972 16.14648438 -0.06054688 C17.88932156 -0.06282015 19.63216164 -0.06352324 21.375 -0.0625 C22.18972275 -0.07170975 23.0044455 -0.08091949 23.84385681 -0.09040833 C28.4638879 -0.05291462 31.4998859 0.30459548 35.25390625 3.30078125 C36.56758966 5.92814806 36.40998923 7.92210094 36.44677734 10.86450195 C36.46284027 12.0294368 36.4789032 13.19437164 36.49545288 14.39460754 C36.53981081 19.72458439 36.58140717 25.05441302 36.60400391 30.38452148 C36.61733949 33.19865453 36.64518344 36.01206177 36.68603516 38.82592773 C36.74483643 42.87626393 36.76266379 46.92582174 36.77734375 50.9765625 C36.80001312 52.23503494 36.8226825 53.49350739 36.84603882 54.79011536 C36.82531623 63.32910337 36.82531623 63.32910337 34.31713867 67.59423828 C30.03998245 69.97706461 26.54487533 70.00237019 21.71875 69.9296875 C20.34524132 69.93330544 20.34524132 69.93330544 18.94398499 69.93699646 C17.01331235 69.93601924 15.08261127 69.92265541 13.15209961 69.89770508 C10.19743778 69.86335138 7.24576039 69.87706306 4.29101562 69.89648438 C2.41274769 69.88958689 0.53448747 69.87991539 -1.34375 69.8671875 C-2.22611832 69.87214737 -3.10848663 69.87710724 -4.01759338 69.88221741 C-10.11152211 69.76516032 -10.11152211 69.76516032 -13.27124023 67.45288086 C-15.6701878 63.95234738 -15.87769386 61.12273166 -15.90722656 56.99072266 C-15.91683411 55.90594635 -15.92644165 54.82117004 -15.93634033 53.70352173 C-15.94059021 52.531633 -15.94484009 51.35974426 -15.94921875 50.15234375 C-15.95491882 48.94766449 -15.9606189 47.74298523 -15.9664917 46.50180054 C-15.9759438 43.95140461 -15.98247651 41.40099647 -15.98632812 38.85058594 C-15.99603759 34.94835127 -16.02706154 31.04664235 -16.05859375 27.14453125 C-16.0651234 24.66797188 -16.07037402 22.19140874 -16.07421875 19.71484375 C-16.08656555 18.54700348 -16.09891235 17.37916321 -16.1116333 16.17593384 C-16.1086322 15.08485321 -16.1056311 13.99377258 -16.10253906 12.86962891 C-16.10618469 11.91271149 -16.10983032 10.95579407 -16.11358643 9.96987915 C-15.59453206 6.19998927 -14.111151 3.37702561 -11.10522461 1.00708008 C-7.44460966 -0.08886932 -3.78721991 -0.00422616 0 0 Z M2.25390625 18.30078125 C2.25390625 29.19078125 2.25390625 40.08078125 2.25390625 51.30078125 C7.53390625 51.30078125 12.81390625 51.30078125 18.25390625 51.30078125 C18.25390625 40.41078125 18.25390625 29.52078125 18.25390625 18.30078125 C12.97390625 18.30078125 7.69390625 18.30078125 2.25390625 18.30078125 Z " fill="#000000" transform="translate(202.74609375,391.69921875)"/>
</svg>
