<?xml version="1.0" encoding="utf-8"?>
<!-- Generator: Adobe Illustrator 24.0.1, SVG Export Plug-In . SVG Version: 6.00 Build 0)  -->
<svg version="1.1" id="Layer_1" xmlns="http://www.w3.org/2000/svg" xmlns:xlink="http://www.w3.org/1999/xlink" x="0px" y="0px"
	 viewBox="0 0 471 295" style="enable-background:new 0 0 471 295;" xml:space="preserve">
<style type="text/css">
	.st0{fill:#D4AF37;}
	.st1{fill:#1B263B;}
	.st2{fill-rule:evenodd;clip-rule:evenodd;fill:#D5AF34;}
	.st3{fill-rule:evenodd;clip-rule:evenodd;fill:#1A263B;}
</style>
<g>
	<path class="st0" d="M219.9,62.6h28v44.1c-11.9,8.1-31.3,14.1-46.9,14.1c-34,0-59-23.9-59-56.2c0-32.1,25.8-55.9,61.2-55.9
		c16.7,0,34.7,6.4,46.3,16.6L231,47.7c-7.5-7.2-18.5-11.9-28-11.9c-15.8,0-27.7,12.4-27.7,28.8c0,16.7,12,28.9,28,28.9
		c4.5,0,10.6-1.6,16.6-4.2V62.6z"/>
	<path class="st0" d="M354,76.8c0,26.3-18.6,43.7-47.3,43.7c-28.6,0-47.4-17.4-47.4-43.7c0-26.4,18.8-43.7,47.4-43.7
		C335.4,33.2,354,50.4,354,76.8z M291.3,77.2c0,11.4,6.1,18.9,15.5,18.9c9.2,0,15.3-7.5,15.3-18.9c0-11.3-6.1-18.9-15.3-18.9
		C297.4,58.2,291.3,65.9,291.3,77.2z"/>
</g>
<g>
	<path class="st1" d="M46,140.8c5.5,0.2,11.4,1.4,15.5,3.6L61,160c-3.4-2.7-7.7-4.1-11.6-4.1c-8.3-0.2-14.4,5.9-14.4,14.7v7.7h22
		l-0.2,13.3H35.1v66.8H17.3v-66.8h-11l0.2-13.3h10.8V168C17.2,151.9,29.1,140.6,46,140.8z M88.3,142.3v116.1h-18V142.3H88.3z"/>
	<path class="st1" d="M192,223.7h-62.9c2.8,12.8,12.7,20.8,25.8,20.8c9.1,0,17.4-3.4,23.5-9.7l9.5,10.2c-8.1,8.9-20,14.1-34.4,14.1
		c-25.7,0-42.6-17.1-42.6-42.1c0-25.2,17.4-42.2,42.1-42.4C182.3,174.6,194.2,193.7,192,223.7z M176.4,210.6
		c-0.6-13.5-9.5-21.6-23.2-21.6c-13.1,0-22.5,8.3-24.4,21.6H176.4z"/>
	<path class="st1" d="M401,289.6c-7.5,0-13.5-2.2-19.2-7l7.7-13.9c3.9,2.8,7,4.1,10.8,4.1c5.5,0,9.9-3,12.7-9.2l2.8-6.3l-34.4-82
		H400l24.9,63.1l23.2-63.1h18L428.2,270C422.9,283,413.6,289.6,401,289.6z"/>
</g>
<path class="st2" d="M152.6,97.7h52.3l92.9,101L242,258.6h-52.3l58.7-61.7L152.6,97.7z"/>
<path class="st3" d="M278.6,167l25.1-27l51,0.1l-51.9,53.5L278.6,167z"/>
<path class="st3" d="M278.8,229.6l24.2-26.1l75.9,75.4l-50.8,0.4L278.8,229.6z"/>
</svg>
