<?xml version="1.0" encoding="UTF-8"?>
<svg version="1.1" xmlns="http://www.w3.org/2000/svg" width="512" height="512">
<path d="M0 0 C26.4 0 52.8 0 80 0 C80 5.28 80 10.56 80 16 C77.36 16 74.72 16 72 16 C72 18.64 72 21.28 72 24 C72.60562271 23.98889694 73.21124542 23.97779388 73.83522034 23.96635437 C80.21185359 23.85463282 86.58820327 23.77987163 92.96557617 23.7253418 C95.33678504 23.70039526 97.7079186 23.66642551 100.07885742 23.62280273 C118.54583985 23.29185323 133.11966428 23.90634534 148 36 C148.83273437 36.62648437 149.66546875 37.25296875 150.5234375 37.8984375 C159.62778503 45.62420875 167.15620091 59.19612369 168.19196701 71.23041344 C168.27300992 73.81117807 168.29309979 76.38548398 168.29052734 78.9675293 C168.29724457 79.94414017 168.30396179 80.92075104 168.31088257 81.92695618 C168.32981708 85.14276273 168.33378479 88.35835998 168.3359375 91.57421875 C168.34236961 93.8223326 168.34909828 96.07044562 168.35610962 98.31855774 C168.36807179 103.0283909 168.37179163 107.73815077 168.37060547 112.44799805 C168.37040258 118.45874854 168.39767843 124.46902462 168.43214989 130.4796629 C168.45448095 135.12362286 168.45844107 139.7674699 168.45738602 144.41147804 C168.45973364 146.62607263 168.46850943 148.84067072 168.48405075 151.05521202 C168.62475567 173.17975417 168.62475567 173.17975417 164 183 C163.49597656 184.12277344 162.99195313 185.24554688 162.47265625 186.40234375 C162.00730469 187.23894531 161.54195312 188.07554687 161.0625 188.9375 C160.36833984 190.21947266 160.36833984 190.21947266 159.66015625 191.52734375 C158 194 158 194 153 199 C164.385 199.495 164.385 199.495 176 200 C176 160.4 176 120.8 176 80 C188.519375 79.7525 201.03875 79.505 213.9375 79.25 C219.84450806 79.08612793 219.84450806 79.08612793 225.87084961 78.91894531 C230.71789551 78.86474609 230.71789551 78.86474609 232.99440002 78.85467529 C234.56858647 78.83636774 236.14261487 78.79440238 237.7157135 78.73309326 C250.96625991 78.24295018 250.96625991 78.24295018 255.96080017 82.5579834 C258.27247118 85.60775454 260.15056543 88.65444473 262 92 C263.2758554 93.84710945 264.56852389 95.68286417 265.88671875 97.5 C267.15581154 99.33183482 268.4226902 101.16520532 269.6875 103 C271.08437572 105.01710695 272.48151598 107.03403073 273.87890625 109.05078125 C274.57000488 110.04932129 275.26110352 111.04786133 275.97314453 112.07666016 C279.00993986 116.45663935 282.06617293 120.82289085 285.125 125.1875 C285.68856201 125.99227783 286.25212402 126.79705566 286.83276367 127.6262207 C289.81035255 131.87766717 292.79095276 136.12698684 295.7734375 140.375 C296.39718262 141.26421143 297.02092773 142.15342285 297.66357422 143.06958008 C298.8439977 144.7523348 300.02524436 146.43451253 301.20751953 148.1159668 C301.74747559 148.88593994 302.28743164 149.65591309 302.84375 150.44921875 C303.30974609 151.11268311 303.77574219 151.77614746 304.25585938 152.4597168 C304.83142578 153.29801025 305.40699219 154.13630371 306 155 C306.48143023 155.60467983 306.96286045 156.20935966 307.45887947 156.83236313 C312.02189829 162.91499142 312.84648056 167.4439221 312.68115234 174.93579102 C312.6820285 175.99049088 312.68290466 177.04519073 312.68380737 178.1318512 C312.67965415 181.58997762 312.63310635 185.0461221 312.5859375 188.50390625 C312.57473739 190.91241903 312.56620106 193.32094555 312.56021118 195.72947693 C312.53737758 202.04759922 312.47849985 208.36488491 312.4119873 214.68267822 C312.35044763 221.13794642 312.32317113 227.59335071 312.29296875 234.04882812 C312.22875234 246.69964417 312.12327031 259.3496214 312 272 C304.08 272 296.16 272 288 272 C288 275.3 288 278.6 288 282 C285.6017053 294.39367198 277.89172162 305.347821 267.6875 312.65625 C255.03705061 320.72091149 241.03983204 322.00724219 226.390625 319.34375 C213.42946682 315.44868692 202.88851082 306.2691996 196.2890625 294.60546875 C192.34540779 286.63450604 192 281.18761012 192 272 C149.76 272 107.52 272 64 272 C64 275.3 64 278.6 64 282 C61.6017053 294.39367198 53.89172162 305.347821 43.6875 312.65625 C31.03705061 320.72091149 17.03983204 322.00724219 2.390625 319.34375 C-10.57053318 315.44868692 -21.11148918 306.2691996 -27.7109375 294.60546875 C-31.65459221 286.63450604 -32 281.18761012 -32 272 C-39.92 272 -47.84 272 -56 272 C-55.9779248 270.1835498 -55.95584961 268.36709961 -55.93310547 266.49560547 C-55.87176466 260.48022471 -55.85674973 254.46620696 -55.87302971 248.45063591 C-55.88121358 244.80452682 -55.87105733 241.1604262 -55.81835938 237.51464844 C-55.76813997 233.99294138 -55.76691815 230.47425052 -55.79904556 226.95236588 C-55.8045989 224.96145055 -55.75998558 222.97059908 -55.71456909 220.98019409 C-55.7713305 217.38333645 -55.90966818 214.43005188 -57 211 C-60.00633346 208.10110422 -63.18857575 206.6118922 -67 205 C-77.89254816 197.37521629 -85.33289958 183.90800568 -88 171 C-88.28607758 167.67614096 -88.2938497 164.36723077 -88.29052734 161.0324707 C-88.29724457 160.05585983 -88.30396179 159.07924896 -88.31088257 158.07304382 C-88.32981708 154.85723727 -88.33378479 151.64164002 -88.3359375 148.42578125 C-88.34236961 146.1776674 -88.34909828 143.92955438 -88.35610962 141.68144226 C-88.36807179 136.9716091 -88.37179163 132.26184923 -88.37060547 127.55200195 C-88.37040258 121.54125146 -88.39767843 115.53097538 -88.43214989 109.5203371 C-88.45448095 104.87637714 -88.45844107 100.2325301 -88.45738602 95.58852196 C-88.45973364 93.37392737 -88.46850943 91.15932928 -88.48405075 88.94478798 C-88.62474343 66.82217049 -88.62474343 66.82217049 -84 57 C-83.50757813 55.90042969 -83.01515625 54.80085938 -82.5078125 53.66796875 C-74.31949418 38.97988362 -62.89299772 30.62544488 -47.07104492 24.94921875 C-41.84665606 23.48437091 -36.54363356 23.75320558 -31.16015625 23.8046875 C-29.47701576 23.80893234 -29.47701576 23.80893234 -27.75987244 23.81326294 C-24.19397082 23.82441225 -20.62832506 23.84950749 -17.0625 23.875 C-14.63737343 23.88503657 -12.21224291 23.89416124 -9.78710938 23.90234375 C-3.85798637 23.92433441 2.07098853 23.95775973 8 24 C8 21.36 8 18.72 8 16 C5.36 16 2.72 16 0 16 C0 10.72 0 5.44 0 0 Z M24 16 C24 18.64 24 21.28 24 24 C34.56 24 45.12 24 56 24 C56 21.36 56 18.72 56 16 C45.44 16 34.88 16 24 16 Z M-24 40 C-24 92.8 -24 145.6 -24 200 C18.24 200 60.48 200 104 200 C104 147.2 104 94.4 104 40 C61.76 40 19.52 40 -24 40 Z M-59.875 51.25 C-69.5743017 61.96903268 -72.15438051 73.97053182 -72.14526367 88.06152344 C-72.14862228 88.82370178 -72.1519809 89.58588013 -72.15544128 90.37115479 C-72.16486618 92.86724521 -72.16689019 95.36326793 -72.16796875 97.859375 C-72.17118752 99.61281358 -72.17455205 101.3662519 -72.17805481 103.11968994 C-72.18402518 106.78780743 -72.1858969 110.45590144 -72.18530273 114.12402344 C-72.18520131 118.79501404 -72.19884306 123.46585198 -72.21607494 128.13680649 C-72.22726373 131.75735142 -72.22921983 135.37786027 -72.22869301 138.99842072 C-72.22986318 140.71898168 -72.23423003 142.43954388 -72.24202538 144.16008759 C-72.31436265 161.7762454 -71.25223783 176.2776111 -58.609375 189.7265625 C-53.31027103 194.3434465 -47.11052277 198 -40 198 C-40 146.52 -40 95.04 -40 42 C-47.32949295 42 -54.57826162 46.26134931 -59.875 51.25 Z M120 42 C120 93.48 120 144.96 120 198 C130.74222596 196.46539629 137.13605823 191.79566565 144.08984375 183.56640625 C153.10653012 171.45196259 152.30526719 156.16186896 152.265625 141.75 C152.26697596 140.0022781 152.26892006 138.25455657 152.27142334 136.50683594 C152.27435434 132.86259343 152.27014266 129.21844968 152.26074219 125.57421875 C152.24934891 120.93471411 152.25591931 116.295441 152.26788712 111.65594482 C152.27516072 108.0525543 152.2727927 104.44921745 152.26763153 100.8458252 C152.2663102 99.13643363 152.26788869 97.42703698 152.27259064 95.71765137 C152.31032129 78.1515627 151.2127365 63.68036903 138.609375 50.2734375 C133.31027103 45.6565535 127.11052277 42 120 42 Z M192 96 C192 148.8 192 201.6 192 256 C195.0941966 255.344636 195.0941966 255.344636 196.0703125 253.06640625 C196.59238281 251.82697266 196.59238281 251.82697266 197.125 250.5625 C202.67559503 238.99876035 212.47670718 230.61097051 224.4375 226.0625 C237.63559008 222.68378894 252.8250275 223.807127 264.6640625 230.5078125 C274.6551893 236.99751722 280.78376996 245.42923078 286 256 C289.3 256 292.6 256 296 256 C296 229.6 296 203.2 296 176 C272.24 176 248.48 176 224 176 C224 152.24 224 128.48 224 104 C231.92 104 239.84 104 248 104 C246.0745356 99.8509288 246.0745356 99.8509288 243 96 C226.17 96 209.34 96 192 96 Z M240 120 C240 133.2 240 146.4 240 160 C255.51 160 271.02 160 287 160 C285.5274915 156.31872874 284.58582596 154.15578086 282.34765625 151.13671875 C281.82333008 150.42185303 281.29900391 149.7069873 280.75878906 148.97045898 C279.91912598 147.84039429 279.91912598 147.84039429 279.0625 146.6875 C274.02984484 139.82729306 269.12417233 132.89972434 264.34008789 125.86401367 C262.34922999 122.78914479 262.34922999 122.78914479 260 120 C253.4 120 246.8 120 240 120 Z M-40 216 C-40 229.2 -40 242.4 -40 256 C-36.7 256 -33.4 256 -30 256 C-29.50693359 254.98292969 -29.50693359 254.98292969 -29.00390625 253.9453125 C-22.44367436 241.10930323 -13.25858199 231.27086921 0.4375 226.0625 C13.63559008 222.68378894 28.8250275 223.807127 40.6640625 230.5078125 C50.8888936 237.1493191 56.1028447 245.18854861 62 256 C99.62 256 137.24 256 176 256 C176 242.8 176 229.6 176 216 C104.72 216 33.44 216 -40 216 Z M-8.375 251.3125 C-9.28939765 252.51264692 -10.16547748 253.74300045 -11 255 C-11.4125 255.62132812 -11.825 256.24265625 -12.25 256.8828125 C-16.0840359 263.88525306 -16.23829811 272.24617069 -15 280 C-11.93116396 289.90091626 -5.94392614 296.54491136 3.0625 301.4375 C10.95284025 304.59090588 20.57940696 304.25301701 28.5 301.375 C37.01034288 297.31708817 41.86183178 291.41520114 46 283 C48.75114015 274.92998891 47.91881259 264.86237259 44.30859375 257.2421875 C39.06365198 248.25533205 31.66436047 243.08915632 21.578125 240.33984375 C10.28505204 238.59782718 -0.67614761 242.99464441 -8.375 251.3125 Z M215.625 251.3125 C214.71060235 252.51264692 213.83452252 253.74300045 213 255 C212.5875 255.62132812 212.175 256.24265625 211.75 256.8828125 C207.9159641 263.88525306 207.76170189 272.24617069 209 280 C212.06883604 289.90091626 218.05607386 296.54491136 227.0625 301.4375 C234.95284025 304.59090588 244.57940696 304.25301701 252.5 301.375 C261.01034288 297.31708817 265.86183178 291.41520114 270 283 C272.75114015 274.92998891 271.91881259 264.86237259 268.30859375 257.2421875 C263.06365198 248.25533205 255.66436047 243.08915632 245.578125 240.33984375 C234.28505204 238.59782718 223.32385239 242.99464441 215.625 251.3125 Z " fill="#000000" transform="translate(144,128)"/>
<path d="M0 0 C5.82485779 3.51996782 10.54466582 8.98962934 12.5625 15.5 C13.36764105 23.33608208 13.68710392 31.11922577 8.5625 37.5 C3.75801361 42.54521222 -0.59927055 46.10562995 -7.70703125 46.8359375 C-16.22326573 46.92983204 -22.11345494 46.6177288 -28.40234375 40.62890625 C-34.7841668 33.72505269 -35.91792252 28.29832071 -35.7421875 18.9453125 C-35.04689797 11.08319245 -31.38995981 6.95041296 -25.53515625 1.9453125 C-18.47077988 -2.92213491 -7.84396301 -3.47595223 0 0 Z M-16.8125 17.125 C-18.92456506 20.21186432 -19.04945145 21.8282913 -18.4375 25.5 C-16.9375 28 -16.9375 28 -14.4375 29.5 C-10.7657913 30.11195145 -9.14936432 29.98706506 -6.0625 27.875 C-3.95043494 24.78813568 -3.82554855 23.1717087 -4.4375 19.5 C-5.9375 17 -5.9375 17 -8.4375 15.5 C-12.1092087 14.88804855 -13.72563568 15.01293494 -16.8125 17.125 Z " fill="#000000" transform="translate(395.4375,377.5)"/>
<path d="M0 0 C5.82485779 3.51996782 10.54466582 8.98962934 12.5625 15.5 C13.36764105 23.33608208 13.68710392 31.11922577 8.5625 37.5 C3.75801361 42.54521222 -0.59927055 46.10562995 -7.70703125 46.8359375 C-16.22326573 46.92983204 -22.11345494 46.6177288 -28.40234375 40.62890625 C-34.7841668 33.72505269 -35.91792252 28.29832071 -35.7421875 18.9453125 C-35.04689797 11.08319245 -31.38995981 6.95041296 -25.53515625 1.9453125 C-18.47077988 -2.92213491 -7.84396301 -3.47595223 0 0 Z M-16.8125 17.125 C-18.92456506 20.21186432 -19.04945145 21.8282913 -18.4375 25.5 C-16.9375 28 -16.9375 28 -14.4375 29.5 C-10.7657913 30.11195145 -9.14936432 29.98706506 -6.0625 27.875 C-3.95043494 24.78813568 -3.82554855 23.1717087 -4.4375 19.5 C-5.9375 17 -5.9375 17 -8.4375 15.5 C-12.1092087 14.88804855 -13.72563568 15.01293494 -16.8125 17.125 Z " fill="#000000" transform="translate(171.4375,377.5)"/>
</svg>
